<svg width="24" height="24" viewBox="0 0 24 24" fill="none" xmlns="http://www.w3.org/2000/svg">
<g id="&#208;&#152;&#208;&#186;&#208;&#190;&#208;&#189;&#208;&#186;&#208;&#184;">
<path id="Subtract" fill-rule="evenodd" clip-rule="evenodd" d="M23.9175 10.0062C23.9448 10.0681 23.9657 10.1326 23.98 10.1987C23.9934 10.2649 24.0001 10.3324 24 10.3999V21.3999C24 21.6652 23.8946 21.9195 23.7071 22.107C23.5196 22.2946 23.2652 22.3999 23 22.3999H21C20.7348 22.3999 20.4804 22.2946 20.2929 22.107C20.1054 21.9195 20 21.6652 20 21.3999V20.3999H4.00001V21.3999C4.00001 21.6652 3.89465 21.9195 3.70711 22.107C3.51958 22.2946 3.26522 22.3999 3.00001 22.3999H1.00001C0.734791 22.3999 0.480438 22.2946 0.292901 22.107C0.105365 21.9195 7.95119e-06 21.6652 7.95119e-06 21.3999V10.3999C-0.000536771 10.2645 0.0269125 10.1305 0.080633 10.0062L2.44438 4.4962C2.98813 3.22308 4.31376 2.39995 5.81938 2.39995H9.6V1.19995H14.4V2.39995H18.1806C19.6875 2.39995 21.0119 3.22308 21.5562 4.4962L23.9175 10.0062ZM3.88887 16.0629C4.21776 16.2826 4.60444 16.3999 5.00001 16.3999C5.53044 16.3999 6.03915 16.1892 6.41422 15.8142C6.78929 15.4391 7.00001 14.9304 7.00001 14.3999C7.00001 14.0044 6.88271 13.6177 6.66295 13.2888C6.44318 12.9599 6.13083 12.7036 5.76537 12.5522C5.39992 12.4008 4.99779 12.3612 4.60983 12.4384C4.22186 12.5155 3.8655 12.706 3.58579 12.9857C3.30609 13.2654 3.11561 13.6218 3.03844 14.0098C2.96127 14.3977 3.00087 14.7999 3.15225 15.1653C3.30362 15.5308 3.55997 15.8431 3.88887 16.0629ZM17.8889 16.0629C18.2178 16.2826 18.6044 16.3999 19 16.3999C19.5304 16.3999 20.0391 16.1892 20.4142 15.8142C20.7893 15.4391 21 14.9304 21 14.3999C21 14.0044 20.8827 13.6177 20.6629 13.2888C20.4432 12.9599 20.1308 12.7036 19.7654 12.5522C19.3999 12.4008 18.9978 12.3612 18.6098 12.4384C18.2219 12.5155 17.8655 12.706 17.5858 12.9857C17.3061 13.2654 17.1156 13.6218 17.0384 14.0098C16.9613 14.3977 17.0009 14.7999 17.1522 15.1653C17.3036 15.5308 17.56 15.8431 17.8889 16.0629ZM4.28063 5.28432L2.51626 9.39995H21.4837L19.7194 5.28432C19.4931 4.75557 18.8744 4.39995 18.1806 4.39995H5.81938C5.12501 4.39995 4.50688 4.75557 4.28063 5.28432ZM9.67461 17.3937C9.59263 17.0727 9.86863 16.8 10.2 16.8H10.3288C10.589 16.8 10.7917 17.0187 10.8913 17.2592C10.9517 17.4048 11.04 17.537 11.1515 17.6485C11.2629 17.7599 11.3952 17.8483 11.5408 17.9086C11.6864 17.9689 11.8424 18 12 18C12.1576 18 12.3136 17.9689 12.4592 17.9086C12.6048 17.8483 12.7371 17.7599 12.8485 17.6485C12.96 17.537 13.0484 17.4048 13.1087 17.2592C13.2083 17.0187 13.411 16.8 13.6712 16.8H13.8C14.1314 16.8 14.4074 17.0727 14.3254 17.3937C14.2972 17.5041 14.2611 17.6126 14.2173 17.7184C14.0967 18.0096 13.9199 18.2741 13.6971 18.497C13.4742 18.7199 13.2096 18.8967 12.9184 19.0173C12.6273 19.1379 12.3152 19.1999 12 19.1999C11.6848 19.1999 11.3727 19.1379 11.0816 19.0173C10.7904 18.8967 10.5258 18.7199 10.3029 18.497C10.0801 18.2741 9.9033 18.0096 9.78269 17.7184C9.73889 17.6126 9.7028 17.5041 9.67461 17.3937Z" fill="#4F8B89"/>
</g>
</svg>
