<svg width="16" height="16" viewBox="0 0 16 16" fill="none" xmlns="http://www.w3.org/2000/svg">
<g id="&#208;&#152;&#208;&#186;&#208;&#190;&#208;&#189;&#208;&#186;&#208;&#184;">
<path id="Subtract" fill-rule="evenodd" clip-rule="evenodd" d="M15.945 6.67088C15.9632 6.71214 15.9772 6.75514 15.9867 6.79921C15.9956 6.84338 16.0001 6.88832 16 6.93338V14.2667C16 14.4435 15.9298 14.6131 15.8047 14.7381C15.6797 14.8631 15.5101 14.9334 15.3333 14.9334H14C13.8232 14.9334 13.6536 14.8631 13.5286 14.7381C13.4036 14.6131 13.3333 14.4435 13.3333 14.2667V13.6H2.66667V14.2667C2.66667 14.4435 2.59643 14.6131 2.47141 14.7381C2.34638 14.8631 2.17682 14.9334 2 14.9334H0.666672C0.489861 14.9334 0.320292 14.8631 0.195267 14.7381C0.0702433 14.6131 5.30079e-06 14.4435 5.30079e-06 14.2667V6.93338C-0.000357847 6.84311 0.0179417 6.75374 0.0537553 6.67088L1.62959 2.99755C1.99209 2.1488 2.87584 1.60005 3.87959 1.60005H6.4V0.800049H9.6V1.60005H12.1204C13.125 1.60005 14.0079 2.1488 14.3708 2.99755L15.945 6.67088ZM2.59258 10.7087C2.81184 10.8552 3.06963 10.9334 3.33334 10.9334C3.68696 10.9334 4.0261 10.7929 4.27615 10.5429C4.52619 10.2928 4.66667 9.95367 4.66667 9.60005C4.66667 9.33634 4.58847 9.07855 4.44196 8.85929C4.29545 8.64002 4.08722 8.46912 3.84358 8.36821C3.59995 8.26729 3.33186 8.24089 3.07322 8.29233C2.81458 8.34378 2.577 8.47077 2.39053 8.65724C2.20406 8.84371 2.07707 9.08128 2.02562 9.33993C1.97418 9.59857 2.00058 9.86666 2.1015 10.1103C2.20242 10.3539 2.37331 10.5622 2.59258 10.7087ZM11.9259 10.7087C12.1452 10.8552 12.403 10.9334 12.6667 10.9334C13.0203 10.9334 13.3594 10.7929 13.6095 10.5429C13.8595 10.2928 14 9.95367 14 9.60005C14 9.33634 13.9218 9.07855 13.7753 8.85929C13.6288 8.64002 13.4205 8.46912 13.1769 8.36821C12.9333 8.26729 12.6652 8.24089 12.4065 8.29233C12.1479 8.34378 11.9103 8.47077 11.7239 8.65724C11.5374 8.84371 11.4104 9.08128 11.359 9.33993C11.3075 9.59857 11.3339 9.86666 11.4348 10.1103C11.5357 10.3539 11.7066 10.5622 11.9259 10.7087ZM2.85375 3.52296L1.6775 6.26671H14.3225L13.1463 3.52296C12.9954 3.17046 12.5829 2.93338 12.1204 2.93338H3.87959C3.41667 2.93338 3.00459 3.17046 2.85375 3.52296ZM6.44974 11.5959C6.39509 11.3819 6.57909 11.2 6.8 11.2H6.88584C7.05935 11.2 7.1945 11.3459 7.2609 11.5062C7.3011 11.6033 7.36003 11.6914 7.43431 11.7657C7.5086 11.84 7.59679 11.8989 7.69385 11.9392C7.79091 11.9794 7.89494 12 8 12C8.10506 12 8.20909 11.9794 8.30615 11.9392C8.40321 11.8989 8.4914 11.84 8.56569 11.7657C8.63997 11.6914 8.6989 11.6033 8.7391 11.5062C8.8055 11.3459 8.94065 11.2 9.11416 11.2H9.2C9.42091 11.2 9.60491 11.3819 9.55026 11.5959C9.53146 11.6695 9.50741 11.7418 9.47821 11.8123C9.3978 12.0065 9.27994 12.1828 9.13137 12.3314C8.9828 12.48 8.80641 12.5978 8.61229 12.6783C8.41817 12.7587 8.21012 12.8 8 12.8C7.78989 12.8 7.58183 12.7587 7.38771 12.6783C7.19359 12.5978 7.0172 12.48 6.86863 12.3314C6.72006 12.1828 6.6022 12.0065 6.52179 11.8123C6.49259 11.7418 6.46854 11.6695 6.44974 11.5959Z" fill="#FC7E7E"/>
</g>
</svg>
