<svg width="16" height="16" viewBox="0 0 16 16" fill="none" xmlns="http://www.w3.org/2000/svg">
<path d="M13.8666 1.5999C13.7965 1.59979 13.7271 1.61356 13.6623 1.64041C13.5976 1.66726 13.5388 1.70667 13.4893 1.75636L1.74689 13.4985C1.65102 13.5995 1.59836 13.7338 1.60014 13.873C1.60192 14.0122 1.658 14.1452 1.75643 14.2436C1.85485 14.342 1.98783 14.3981 2.12701 14.3999C2.26619 14.4016 2.40056 14.349 2.50147 14.2531L14.2439 2.51092C14.3185 2.43628 14.3693 2.3412 14.3899 2.2377C14.4104 2.1342 14.3999 2.02692 14.3595 1.92942C14.3191 1.83192 14.2507 1.74858 14.163 1.68993C14.0753 1.63128 13.9721 1.59995 13.8666 1.5999ZM7.72852 6.00823L6.00085 7.73587C5.99095 7.74568 5.97822 7.75215 5.96446 7.75436C5.95069 7.75658 5.93658 7.75442 5.9241 7.7482C5.91162 7.74198 5.90141 7.73201 5.89489 7.71968C5.88837 7.70736 5.88588 7.6933 5.88776 7.67949C5.95751 7.23128 6.16797 6.81685 6.48872 6.4961C6.80948 6.17535 7.22392 5.96489 7.67214 5.89514C7.68595 5.89326 7.70001 5.89576 7.71234 5.90227C7.72466 5.90879 7.73463 5.91901 7.74085 5.93148C7.74707 5.94396 7.74923 5.95807 7.74702 5.97184C7.7448 5.9856 7.73833 5.99833 7.72852 6.00823ZM8.26226 10.0012L9.9926 8.2716C10.0025 8.26165 10.0152 8.25506 10.0291 8.25277C10.0429 8.25048 10.0571 8.2526 10.0697 8.25884C10.0822 8.26509 10.0925 8.27512 10.099 8.28753C10.1055 8.29994 10.108 8.3141 10.106 8.32798C10.0365 8.7768 9.82584 9.19184 9.50468 9.51299C9.18352 9.83415 8.76847 10.0448 8.31964 10.1143C8.30574 10.1165 8.29152 10.1142 8.27901 10.1077C8.2665 10.1013 8.25633 10.0911 8.24997 10.0786C8.24361 10.066 8.24137 10.0518 8.24358 10.0379C8.24579 10.024 8.25233 10.0112 8.26226 10.0012Z" fill="#605D62"/>
<path d="M15.8319 7.47925C15.9422 7.63514 16.0006 7.81625 16 8.00109C15.9994 8.18593 15.9399 8.36673 15.8286 8.52205C14.9467 9.74965 13.8024 10.7924 12.5199 11.5379C11.099 12.3635 9.53247 12.8 7.98861 12.8C7.17472 12.799 6.36636 12.6796 5.59483 12.4463C5.57323 12.4399 5.55384 12.4286 5.53849 12.4134C5.52313 12.3983 5.51234 12.3799 5.50713 12.36C5.50191 12.34 5.50246 12.3192 5.50871 12.2995C5.51496 12.2798 5.52671 12.2619 5.54283 12.2474L7.11736 10.8302C7.13371 10.8155 7.15406 10.8048 7.17638 10.7993C7.19871 10.7938 7.22224 10.7936 7.24468 10.7987C7.77838 10.9158 8.33658 10.9072 8.86553 10.7738C9.39448 10.6404 9.87637 10.3867 10.2648 10.0371C10.6532 9.68749 10.9351 9.25375 11.0833 8.77765C11.2315 8.30155 11.2411 7.79912 11.111 7.31875C11.1053 7.2986 11.1056 7.27747 11.1117 7.25744C11.1179 7.2374 11.1297 7.21914 11.146 7.20445L13.4108 5.16445C13.4344 5.1432 13.4659 5.13068 13.4992 5.12934C13.5325 5.12801 13.5652 5.13797 13.5908 5.15725C14.4626 5.82608 15.218 6.60878 15.8319 7.47925ZM7.99928 5.12005C7.5149 5.12002 7.03684 5.21898 6.60114 5.40946C6.16544 5.59994 5.78348 5.87696 5.48404 6.21965C5.1846 6.56234 4.97551 6.96175 4.87253 7.38776C4.76956 7.81377 4.77538 8.25526 4.88956 8.67895C4.89522 8.6991 4.89497 8.72022 4.88884 8.74026C4.8827 8.7603 4.87089 8.77856 4.85456 8.79325L2.62676 10.7993C2.60314 10.8206 2.57149 10.8332 2.5381 10.8344C2.5047 10.8357 2.47199 10.8257 2.44644 10.8062C1.63352 10.1819 0.879919 9.42235 0.190981 8.53465C0.0703868 8.37886 0.00397075 8.19431 0.000172528 8.00447C-0.0036257 7.81462 0.0553654 7.62805 0.16965 7.46845C1.0499 6.22855 2.18247 5.18425 3.44535 4.44895C4.86823 3.62005 6.39675 3.20005 7.98861 3.20005C8.81071 3.20203 9.62749 3.31893 10.4097 3.54655C10.4315 3.55281 10.4511 3.56402 10.4667 3.57908C10.4823 3.59415 10.4933 3.61257 10.4987 3.63258C10.5041 3.65259 10.5037 3.67351 10.4975 3.69333C10.4913 3.71315 10.4796 3.7312 10.4634 3.74575L8.8812 5.16955C8.86487 5.18425 8.84459 5.19488 8.82233 5.2004C8.80007 5.20592 8.77659 5.20615 8.75421 5.20105C8.50704 5.14714 8.2536 5.11995 7.99928 5.12005Z" fill="#605D62"/>
</svg>
