<svg width="24" height="24" viewBox="0 0 24 24" fill="none" xmlns="http://www.w3.org/2000/svg">
<g id="&#208;&#152;&#208;&#186;&#208;&#190;&#208;&#189;&#208;&#186;&#208;&#184;">
<path id="&#209;&#132;&#208;&#184;&#208;&#187;&#209;&#140;&#209;&#130;&#209;&#128;" fill-rule="evenodd" clip-rule="evenodd" d="M13.1997 2.3999H10.7996V4.98058C10.0824 5.3956 9.5999 6.1711 9.5999 7.05928C9.5999 7.94746 10.0824 8.72295 10.7996 9.13798V21.5999H13.1997V9.13842C13.9173 8.72351 14.4002 7.94778 14.4002 7.05928C14.4002 6.17078 13.9173 5.39505 13.1997 4.98013V2.3999ZM6.0029 18.1712C6.71876 17.7558 7.20018 16.981 7.20018 16.0938C7.20018 15.2067 6.71876 14.4319 6.0029 14.0165V2.3999H3.60276V14.0133C2.88382 14.4279 2.3999 15.2044 2.3999 16.0938C2.3999 16.9833 2.88382 17.7598 3.60276 18.1744V21.5999H6.0029V18.1712ZM21.6002 11.5763C21.6002 12.464 21.1182 13.2391 20.4016 13.6543V21.5999H18.0015V13.6561C17.2833 13.2413 16.7999 12.4652 16.7999 11.5763C16.7999 10.6873 17.2833 9.91123 18.0015 9.49647V2.3999H20.4016V9.49823C21.1182 9.91341 21.6002 10.6886 21.6002 11.5763Z" fill="#605D62"/>
</g>
</svg>
