<svg width="25" height="24" viewBox="0 0 25 24" fill="none" xmlns="http://www.w3.org/2000/svg">
<path fill-rule="evenodd" clip-rule="evenodd" d="M22.7675 5.37496L24.4818 13.9143C24.4937 13.9754 24.4998 14.0375 24.5 14.0999V20.3999C24.5 21.3547 24.1388 22.2704 23.4958 22.9455C22.8528 23.6206 21.9807 23.9999 21.0714 23.9999H3.92857C3.01926 23.9999 2.14719 23.6206 1.50421 22.9455C0.861228 22.2704 0.500004 21.3547 0.500004 20.3999V14.0999C0.499822 14.0376 0.505565 13.9754 0.517147 13.9143L2.23143 5.37159C2.4034 4.43897 2.79286 3.70434 3.3875 3.18403C3.98215 2.66372 4.74286 2.3999 5.64286 2.3999H19.3571C21.1614 2.3999 22.4364 3.51196 22.7675 5.37496ZM3.91036 5.71978V5.73553L2.46768 12.9288C2.46114 12.9616 2.46166 12.9954 2.46918 13.028C2.4767 13.0605 2.49105 13.0909 2.51117 13.1169C2.53129 13.1428 2.55668 13.1638 2.58549 13.1781C2.6143 13.1925 2.64579 13.1999 2.67768 13.1999H9.07143C9.18343 13.1993 9.29444 13.2219 9.39813 13.2663C9.50182 13.3108 9.59616 13.3763 9.67575 13.459C9.75534 13.5417 9.81864 13.6401 9.86202 13.7485C9.9054 13.857 9.92801 13.9733 9.92857 14.0909C9.92857 14.807 10.1995 15.4937 10.6817 16.0001C11.164 16.5064 11.818 16.7909 12.5 16.7909C13.182 16.7909 13.836 16.5064 14.3183 16.0001C14.8005 15.4937 15.0714 14.807 15.0714 14.0909C15.0728 13.8536 15.1639 13.6266 15.3246 13.4597C15.4853 13.2929 15.7026 13.1998 15.9286 13.201H22.3223C22.3542 13.2011 22.3857 13.1936 22.4145 13.1793C22.4433 13.1649 22.4687 13.144 22.4888 13.118C22.509 13.092 22.5233 13.0616 22.5308 13.0291C22.5383 12.9966 22.5389 12.9627 22.5323 12.9299L21.0896 5.73665C21.0892 5.73391 21.0886 5.73117 21.088 5.72843C21.0869 5.72386 21.0859 5.71929 21.0859 5.71472C20.9037 4.68196 20.3541 4.20103 19.3571 4.20103H5.64018C4.65018 4.20103 4.10054 4.68309 3.91036 5.71978ZM6.49983 7.79987H18.4998C18.7272 7.79987 18.9452 7.70505 19.1059 7.53627C19.2667 7.36748 19.357 7.13857 19.357 6.89987C19.357 6.66118 19.2667 6.43226 19.1059 6.26347C18.9452 6.09469 18.7272 5.99987 18.4998 5.99987H6.49983C6.2725 5.99987 6.05448 6.09469 5.89374 6.26347C5.73299 6.43226 5.64269 6.66118 5.64269 6.89987C5.64269 7.13857 5.73299 7.36748 5.89374 7.53627C6.05448 7.70505 6.2725 7.79987 6.49983 7.79987ZM5.64269 11.3999H19.357C19.5843 11.3999 19.8023 11.305 19.9631 11.1363C20.1238 10.9675 20.2141 10.7386 20.2141 10.4999C20.2141 10.2612 20.1238 10.0323 19.9631 9.86347C19.8023 9.69469 19.5843 9.59987 19.357 9.59987H5.64269C5.41536 9.59987 5.19734 9.69469 5.03659 9.86347C4.87585 10.0323 4.78554 10.2612 4.78554 10.4999C4.78554 10.7386 4.87585 10.9675 5.03659 11.1363C5.19734 11.305 5.41536 11.3999 5.64269 11.3999Z" fill="#BCB5C0"/>
</svg>
