<svg width="25" height="24" viewBox="0 0 25 24" fill="none" xmlns="http://www.w3.org/2000/svg">
<path d="M12.1798 3.59944C12.3774 3.20318 12.9427 3.20318 13.1403 3.59944L15.7084 8.75084C15.7865 8.90753 15.9362 9.01626 16.1093 9.04214L21.8022 9.89266C22.2401 9.95809 22.4148 10.4958 22.099 10.8061L17.9933 14.8404C17.8684 14.9631 17.8112 15.139 17.8401 15.3117L18.7904 20.9888C18.8635 21.4255 18.4061 21.7578 18.0134 21.5533L12.9079 18.8952C12.7525 18.8144 12.5676 18.8144 12.4123 18.8952L7.30672 21.5533C6.91399 21.7578 6.45659 21.4255 6.52969 20.9888L7.47998 15.3117C7.50889 15.139 7.45172 14.9631 7.32683 14.8404L3.22114 10.8061C2.90533 10.4958 3.08004 9.95809 3.51794 9.89266L9.2108 9.04214C9.38397 9.01626 9.53362 8.90753 9.61174 8.75084L12.1798 3.59944Z" fill="#BCB5C0"/>
</svg>
