<svg width="25" height="24" viewBox="0 0 25 24" fill="none" xmlns="http://www.w3.org/2000/svg">
<path d="M12.5 0C5.87288 0 0.5 5.37288 0.5 12C0.5 18.6167 5.88385 24 12.5 24C19.1265 24 24.5 18.6265 24.5 12C24.5 5.38327 19.1167 0 12.5 0ZM18.7308 13.8462H11.8077C11.7465 13.8462 11.6878 13.8218 11.6445 13.7786C11.6012 13.7353 11.5769 13.6766 11.5769 13.6154V3.92308C11.5769 3.86187 11.6012 3.80318 11.6445 3.7599C11.6878 3.71662 11.7465 3.69231 11.8077 3.69231H13.1923C13.2535 3.69231 13.3122 3.71662 13.3555 3.7599C13.3988 3.80318 13.4231 3.86187 13.4231 3.92308V12H18.7308C18.792 12 18.8507 12.0243 18.8939 12.0676C18.9372 12.1109 18.9615 12.1696 18.9615 12.2308V13.6154C18.9615 13.6766 18.9372 13.7353 18.8939 13.7786C18.8507 13.8218 18.792 13.8462 18.7308 13.8462Z" fill="#BCB5C0"/>
</svg>
