<svg width="25" height="24" viewBox="0 0 25 24" fill="none" xmlns="http://www.w3.org/2000/svg">
<path fill-rule="evenodd" clip-rule="evenodd" d="M2.8999 4.3999C2.8999 3.29533 3.79533 2.3999 4.8999 2.3999H5.6999C6.80447 2.3999 7.6999 3.29533 7.6999 4.3999V19.5999C7.6999 20.7045 6.80447 21.5999 5.6999 21.5999H4.8999C3.79533 21.5999 2.8999 20.7045 2.8999 19.5999V4.3999ZM10.0999 9.1999C10.0999 8.09533 10.9953 7.1999 12.0999 7.1999H12.8999C14.0045 7.1999 14.8999 8.09533 14.8999 9.1999V19.5999C14.8999 20.7045 14.0045 21.5999 12.8999 21.5999H12.0999C10.9953 21.5999 10.0999 20.7045 10.0999 19.5999V9.1999ZM19.2999 11.9999C18.1953 11.9999 17.2999 12.8953 17.2999 13.9999V19.5999C17.2999 20.7045 18.1953 21.5999 19.2999 21.5999H20.0999C21.2045 21.5999 22.0999 20.7045 22.0999 19.5999V13.9999C22.0999 12.8953 21.2045 11.9999 20.0999 11.9999H19.2999Z" fill="#BCB5C0"/>
</svg>
