<svg width="16" height="16" viewBox="0 0 16 16" fill="none" xmlns="http://www.w3.org/2000/svg">
<g id="&#208;&#152;&#208;&#186;&#208;&#190;&#208;&#189;&#208;&#186;&#208;&#184;">
<path id="Subtract" fill-rule="evenodd" clip-rule="evenodd" d="M1.6001 3.2001C1.6001 2.31644 2.31644 1.6001 3.2001 1.6001H12.8001C13.6838 1.6001 14.4001 2.31644 14.4001 3.2001V12.8001C14.4001 13.6838 13.6838 14.4001 12.8001 14.4001H3.2001C2.31644 14.4001 1.6001 13.6838 1.6001 12.8001V3.2001ZM5.4401 4.8001C5.4401 4.44664 5.72664 4.1601 6.0801 4.1601H11.2001C11.5536 4.1601 11.8401 4.44664 11.8401 4.8001C11.8401 5.15356 11.5536 5.4401 11.2001 5.4401H6.0801C5.72664 5.4401 5.4401 5.15356 5.4401 4.8001ZM3.5201 4.1601C3.16664 4.1601 2.8801 4.44664 2.8801 4.8001C2.8801 5.15356 3.16664 5.4401 3.5201 5.4401C3.87356 5.4401 4.1601 5.15356 4.1601 4.8001C4.1601 4.44664 3.87356 4.1601 3.5201 4.1601ZM2.8801 7.3601C2.8801 7.00664 3.16664 6.7201 3.5201 6.7201C3.87356 6.7201 4.1601 7.00664 4.1601 7.3601C4.1601 7.71356 3.87356 8.0001 3.5201 8.0001C3.16664 8.0001 2.8801 7.71356 2.8801 7.3601ZM3.5201 9.2801C3.16664 9.2801 2.8801 9.56664 2.8801 9.9201C2.8801 10.2736 3.16664 10.5601 3.5201 10.5601C3.87356 10.5601 4.1601 10.2736 4.1601 9.9201C4.1601 9.56664 3.87356 9.2801 3.5201 9.2801ZM5.4401 7.3601C5.4401 7.00664 5.72664 6.7201 6.0801 6.7201H8.6401C8.99356 6.7201 9.2801 7.00664 9.2801 7.3601C9.2801 7.71356 8.99356 8.0001 8.6401 8.0001H6.0801C5.72663 8.0001 5.4401 7.71356 5.4401 7.3601ZM6.0801 9.2801C5.72664 9.2801 5.4401 9.56664 5.4401 9.9201C5.4401 10.2736 5.72664 10.5601 6.0801 10.5601H9.9201C10.2736 10.5601 10.5601 10.2736 10.5601 9.9201C10.5601 9.56664 10.2736 9.2801 9.9201 9.2801H6.0801Z" fill="#BCB5C0"/>
</g>
</svg>
