<svg width="36" height="36" viewBox="0 0 36 36" fill="none" xmlns="http://www.w3.org/2000/svg">
<g id="&#208;&#152;&#208;&#186;&#208;&#190;&#208;&#189;&#208;&#186;&#208;&#184;">
<path id="Vector" d="M17.5195 5.39916C17.8158 4.80477 18.6639 4.80477 18.9602 5.39915L22.8123 13.1263C22.9295 13.3613 23.154 13.5244 23.4137 13.5632L31.953 14.839C32.6099 14.9371 32.8719 15.7437 32.3982 16.2092L26.2397 22.2606C26.0524 22.4447 25.9666 22.7085 26.01 22.9676L27.4354 31.4832C27.545 32.1382 26.8589 32.6367 26.2699 32.33L18.6115 28.3429C18.3786 28.2216 18.1011 28.2216 17.8681 28.3429L10.2098 32.33C9.62074 32.6367 8.93464 32.1382 9.04429 31.4832L10.4697 22.9676C10.5131 22.7085 10.4273 22.4447 10.24 22.2606L4.08147 16.2092C3.60775 15.7437 3.86981 14.9371 4.52667 14.839L13.066 13.5632C13.3257 13.5244 13.5502 13.3613 13.6674 13.1263L17.5195 5.39916Z" stroke="#C7DAD9" stroke-width="3"/>
</g>
</svg>
