<svg width="24" height="24" viewBox="0 0 24 24" fill="none" xmlns="http://www.w3.org/2000/svg">
<path fill-rule="evenodd" clip-rule="evenodd" d="M1.2002 2.3999H22.8002C22.8002 2.3999 22.3324 10.5355 20.4002 14.3999C18.468 18.2643 12.0002 21.5999 12.0002 21.5999C12.0002 21.5999 5.5324 18.2643 3.6002 14.3999C1.66799 10.5355 1.2002 2.3999 1.2002 2.3999ZM7.62572 10.7074L11.735 14.8166L16.8715 9.68006C17.4389 9.11269 17.4389 8.1928 16.8715 7.62543C16.3042 7.05806 15.3843 7.05806 14.8169 7.62543L11.735 10.7074L9.68035 8.65274C9.11298 8.08537 8.19309 8.08537 7.62572 8.65274C7.05835 9.22011 7.05835 10.14 7.62572 10.7074Z" fill="#BCB5C0"/>
</svg>
