<svg width="24" height="24" viewBox="0 0 24 24" fill="none" xmlns="http://www.w3.org/2000/svg">
<g id="&#208;&#152;&#208;&#186;&#208;&#190;&#208;&#189;&#208;&#186;&#208;&#184;">
<path id="Vector (Stroke)" fill-rule="evenodd" clip-rule="evenodd" d="M0 10.8C0 4.83557 4.83557 0 10.8 0C16.7644 0 21.6 4.83557 21.6 10.8C21.6 16.7644 16.7644 21.6 10.8 21.6C4.83557 21.6 0 16.7644 0 10.8ZM10.8 2.4C6.16105 2.4 2.4 6.16105 2.4 10.8C2.4 15.439 6.16105 19.2 10.8 19.2C15.439 19.2 19.2 15.439 19.2 10.8C19.2 6.16105 15.439 2.4 10.8 2.4Z" fill="#BCB5C0"/>
<path id="Vector (Stroke)_2" fill-rule="evenodd" clip-rule="evenodd" d="M6.14736 3.42916C7.18527 1.56066 8.80001 0 10.8015 0C12.803 0 14.4178 1.56066 15.4557 3.42916C16.5321 5.36701 17.2017 7.97238 17.2017 10.8C17.2017 13.6276 16.5321 16.233 15.4557 18.1708C14.4178 20.0393 12.803 21.6 10.8015 21.6C8.80001 21.6 7.18527 20.0393 6.14736 18.1708C5.07094 16.233 4.40137 13.6276 4.40137 10.8C4.40137 7.97238 5.07094 5.36701 6.14736 3.42916ZM8.24541 4.59457C7.3918 6.1313 6.80137 8.32592 6.80137 10.8C6.80137 13.2741 7.3918 15.4687 8.24541 17.0054C9.13755 18.6115 10.1229 19.2 10.8015 19.2C11.4802 19.2 12.4655 18.6115 13.3576 17.0054C14.2112 15.4687 14.8017 13.2741 14.8017 10.8C14.8017 8.32592 14.2112 6.1313 13.3576 4.59457C12.4655 2.9885 11.4802 2.4 10.8015 2.4C10.1229 2.4 9.13755 2.9885 8.24541 4.59457Z" fill="#BCB5C0"/>
<path id="Vector (Stroke)_3" fill-rule="evenodd" clip-rule="evenodd" d="M9.60019 9.59995V1.19995H12.0002V9.59995H20.4002V12H12.0002V20.4H9.60019V12H1.2002V9.59995H9.60019Z" fill="#BCB5C0"/>
<path id="Vector (Stroke)_4" fill-rule="evenodd" clip-rule="evenodd" d="M3.4228 3.70462C3.80648 3.16422 4.55558 3.03718 5.09597 3.42085C6.65763 4.52961 8.63663 5.19962 10.8014 5.19962C12.9662 5.19962 14.9452 4.52961 16.5069 3.42085C17.0473 3.03718 17.7964 3.16422 18.18 3.70462C18.5637 4.24501 18.4367 4.99411 17.8963 5.37778C15.9281 6.77517 13.4634 7.59962 10.8014 7.59962C8.13945 7.59962 5.67476 6.77517 3.70657 5.37778C3.16618 4.99411 3.03913 4.24501 3.4228 3.70462ZM3.70657 16.2212C5.67476 14.8238 8.13944 13.9993 10.8014 13.9993C13.4634 13.9993 15.9281 14.8238 17.8963 16.2212C18.4367 16.6048 18.5637 17.3539 18.18 17.8943C17.7964 18.4347 17.0473 18.5618 16.5069 18.1781C14.9452 17.0693 12.9662 16.3993 10.8014 16.3993C8.63663 16.3993 6.65763 17.0693 5.09597 18.1781C4.55558 18.5618 3.80648 18.4347 3.4228 17.8943C3.03913 17.3539 3.16618 16.6048 3.70657 16.2212Z" fill="#BCB5C0"/>
</g>
</svg>
