<svg width="24" height="24" viewBox="0 0 24 24" fill="none" xmlns="http://www.w3.org/2000/svg">
<g id="&#208;&#152;&#208;&#186;&#208;&#190;&#208;&#189;&#208;&#186;&#208;&#184;">
<path id="Union" fill-rule="evenodd" clip-rule="evenodd" d="M11.9982 19.1999L2.66953 11.7369C1.78377 11.0283 2.28484 9.5999 3.41917 9.5999H7.19823V3.5999C7.19823 2.93716 7.73549 2.3999 8.39823 2.3999H15.5982C16.261 2.3999 16.7982 2.93716 16.7982 3.5999V9.5999H20.5773C21.7116 9.5999 22.2127 11.0283 21.3269 11.7369L11.9982 19.1999ZM3.59972 21.5999C2.93698 21.5999 2.39972 22.1372 2.39972 22.7999C2.39972 23.4626 2.93698 23.9999 3.59972 23.9999H20.3997C21.0625 23.9999 21.5997 23.4626 21.5997 22.7999C21.5997 22.1372 21.0625 21.5999 20.3997 21.5999H3.59972Z" fill="#BCB5C0"/>
</g>
</svg>
