<svg width="220" height="58" viewBox="0 0 220 58" fill="none" xmlns="http://www.w3.org/2000/svg">
<path fill-rule="evenodd" clip-rule="evenodd" d="M16.7354 7.85175C16.7354 3.51535 20.2507 0 24.5871 0H32.7011C37.0375 0 40.5529 3.51535 40.5529 7.85175V18.2566C40.5529 19.4392 39.5941 20.3979 38.4115 20.3979C37.2288 20.3979 36.2701 19.4392 36.2701 18.2566V7.85175C36.2701 5.88066 34.6722 4.28277 32.7011 4.28277H26.4106C24.4395 4.28277 22.8417 5.88066 22.8417 7.85175V16.8678C22.8417 17.8144 23.2177 18.7222 23.8871 19.3915L38.253 35.58C39.7256 37.0525 40.5529 39.0497 40.5529 41.1322V50.1482C40.5529 54.4846 37.0375 58 32.7011 58H24.5871C20.2507 58 16.7354 54.4846 16.7354 50.1482V39.7434C16.7354 38.5608 17.6941 37.6021 18.8767 37.6021C20.0594 37.6021 21.0181 38.5608 21.0181 39.7434V50.1482C21.0181 52.1193 22.616 53.7172 24.5871 53.7172H29.6227C31.5938 53.7172 33.1917 52.1193 33.1917 50.1482V41.1322C33.1917 40.1856 32.8156 39.2778 32.1463 38.6085L19.0352 22.42C17.5627 20.9475 16.7354 18.9503 16.7354 16.8678V7.85175ZM0 24.9828C0 20.6464 3.51535 17.1311 7.85175 17.1311H13.5621C14.7448 17.1311 15.7035 18.0898 15.7035 19.2725C15.7035 20.4551 14.7448 21.4139 13.5621 21.4139H7.85175C5.88066 21.4139 4.28277 23.0118 4.28277 24.9828V32.8346C4.28277 34.8057 5.88066 36.4036 7.85175 36.4036H13.5621C14.7448 36.4036 15.7035 37.3623 15.7035 38.545C15.7035 39.7276 14.7448 40.6864 13.5621 40.6864H7.85175C3.51535 40.6864 0 37.171 0 32.8346V24.9828ZM44.2556 17.1311C43.073 17.1311 42.1143 18.0898 42.1143 19.2725C42.1143 20.4551 43.073 21.4139 44.2556 21.4139H49.966C51.9371 21.4139 53.535 23.0118 53.535 24.9828V32.8346C53.535 34.8057 51.9371 36.4036 49.966 36.4036H44.2556C43.073 36.4036 42.1143 37.3623 42.1143 38.545C42.1143 39.7276 43.073 40.6864 44.2556 40.6864H49.966C54.3024 40.6864 57.8178 37.171 57.8178 32.8346V24.9828C57.8178 20.6464 54.3024 17.1311 49.966 17.1311H44.2556Z" fill="#4F8B89"/>
<path d="M84.0991 33.1406C84.0991 32.6719 84.0262 32.2552 83.8804 31.8906C83.745 31.526 83.5002 31.1927 83.146 30.8906C82.7918 30.5885 82.2918 30.2969 81.646 30.0156C81.0106 29.724 80.1981 29.4271 79.2085 29.125C78.1252 28.7917 77.1252 28.4219 76.2085 28.0156C75.3022 27.599 74.5106 27.1198 73.8335 26.5781C73.1564 26.026 72.6304 25.3958 72.2554 24.6875C71.8804 23.9688 71.6929 23.1406 71.6929 22.2031C71.6929 21.276 71.8856 20.4323 72.271 19.6719C72.6668 18.9115 73.2241 18.2552 73.9429 17.7031C74.672 17.1406 75.5314 16.7083 76.521 16.4062C77.5106 16.0938 78.6043 15.9375 79.8022 15.9375C81.4897 15.9375 82.9429 16.25 84.1616 16.875C85.3908 17.5 86.3335 18.3385 86.9897 19.3906C87.6564 20.4427 87.9897 21.6042 87.9897 22.875H84.0991C84.0991 22.125 83.9377 21.4635 83.6147 20.8906C83.3022 20.3073 82.8231 19.849 82.1772 19.5156C81.5418 19.1823 80.7345 19.0156 79.7554 19.0156C78.8283 19.0156 78.0575 19.1562 77.4429 19.4375C76.8283 19.7188 76.37 20.099 76.0679 20.5781C75.7658 21.0573 75.6147 21.599 75.6147 22.2031C75.6147 22.6302 75.7137 23.0208 75.9116 23.375C76.1095 23.7188 76.4116 24.0417 76.8179 24.3438C77.2241 24.6354 77.7345 24.9115 78.3491 25.1719C78.9637 25.4323 79.6877 25.6823 80.521 25.9219C81.7814 26.2969 82.8804 26.7135 83.8179 27.1719C84.7554 27.6198 85.5366 28.1302 86.1616 28.7031C86.7866 29.276 87.2554 29.9271 87.5679 30.6562C87.8804 31.375 88.0366 32.1927 88.0366 33.1094C88.0366 34.0677 87.8439 34.9323 87.4585 35.7031C87.0731 36.4635 86.521 37.1146 85.8022 37.6562C85.0939 38.1875 84.2397 38.599 83.2397 38.8906C82.2502 39.1719 81.146 39.3125 79.9272 39.3125C78.8335 39.3125 77.7554 39.1667 76.6929 38.875C75.6408 38.5833 74.6825 38.1406 73.8179 37.5469C72.9533 36.9427 72.2658 36.1927 71.7554 35.2969C71.245 34.3906 70.9897 33.3333 70.9897 32.125H74.9116C74.9116 32.8646 75.0366 33.4948 75.2866 34.0156C75.547 34.5365 75.9064 34.9635 76.3647 35.2969C76.8231 35.6198 77.3543 35.8594 77.9585 36.0156C78.5731 36.1719 79.2293 36.25 79.9272 36.25C80.8439 36.25 81.6095 36.1198 82.2241 35.8594C82.8491 35.599 83.3179 35.2344 83.6304 34.7656C83.9429 34.2969 84.0991 33.7552 84.0991 33.1406ZM94.896 25.5312V39H91.1304V22.0938H94.6772L94.896 25.5312ZM94.2866 29.9219L93.0054 29.9062C93.0054 28.7396 93.1512 27.6615 93.4429 26.6719C93.7345 25.6823 94.1616 24.8229 94.7241 24.0938C95.2866 23.3542 95.9845 22.7865 96.8179 22.3906C97.6616 21.9844 98.6356 21.7812 99.7397 21.7812C100.511 21.7812 101.214 21.8958 101.849 22.125C102.495 22.3438 103.052 22.6927 103.521 23.1719C104 23.651 104.365 24.2656 104.615 25.0156C104.875 25.7656 105.005 26.6719 105.005 27.7344V39H101.24V28.0625C101.24 27.2396 101.115 26.5938 100.865 26.125C100.625 25.6562 100.276 25.3229 99.8179 25.125C99.37 24.9167 98.8335 24.8125 98.2085 24.8125C97.5002 24.8125 96.896 24.9479 96.396 25.2188C95.9064 25.4896 95.5054 25.8594 95.1929 26.3281C94.8804 26.7969 94.6512 27.3385 94.5054 27.9531C94.3595 28.5677 94.2866 29.224 94.2866 29.9219ZM104.771 28.9219L103.005 29.3125C103.005 28.2917 103.146 27.3281 103.427 26.4219C103.719 25.5052 104.141 24.7031 104.693 24.0156C105.255 23.3177 105.948 22.7708 106.771 22.375C107.594 21.9792 108.537 21.7812 109.599 21.7812C110.464 21.7812 111.235 21.901 111.912 22.1406C112.599 22.3698 113.182 22.7344 113.662 23.2344C114.141 23.7344 114.505 24.3854 114.755 25.1875C115.005 25.9792 115.13 26.9375 115.13 28.0625V39H111.349V28.0469C111.349 27.1927 111.224 26.5312 110.974 26.0625C110.735 25.5938 110.391 25.2708 109.943 25.0938C109.495 24.9062 108.958 24.8125 108.333 24.8125C107.75 24.8125 107.235 24.9219 106.787 25.1406C106.349 25.349 105.979 25.6458 105.677 26.0312C105.375 26.4062 105.146 26.8385 104.99 27.3281C104.844 27.8177 104.771 28.349 104.771 28.9219ZM128.537 35.6094V27.5469C128.537 26.9427 128.427 26.4219 128.208 25.9844C127.99 25.5469 127.656 25.2083 127.208 24.9688C126.771 24.7292 126.219 24.6094 125.552 24.6094C124.938 24.6094 124.406 24.7135 123.958 24.9219C123.511 25.1302 123.162 25.4115 122.912 25.7656C122.662 26.1198 122.537 26.5208 122.537 26.9688H118.787C118.787 26.3021 118.948 25.6562 119.271 25.0312C119.594 24.4062 120.063 23.849 120.677 23.3594C121.292 22.8698 122.026 22.4844 122.88 22.2031C123.735 21.9219 124.693 21.7812 125.755 21.7812C127.026 21.7812 128.151 21.9948 129.13 22.4219C130.12 22.849 130.896 23.4948 131.458 24.3594C132.031 25.2135 132.318 26.2865 132.318 27.5781V35.0938C132.318 35.8646 132.37 36.5573 132.474 37.1719C132.589 37.776 132.75 38.3021 132.958 38.75V39H129.099C128.922 38.5938 128.781 38.0781 128.677 37.4531C128.583 36.8177 128.537 36.2031 128.537 35.6094ZM129.083 28.7188L129.115 31.0469H126.412C125.714 31.0469 125.099 31.1146 124.568 31.25C124.037 31.375 123.594 31.5625 123.24 31.8125C122.886 32.0625 122.62 32.3646 122.443 32.7188C122.266 33.0729 122.177 33.474 122.177 33.9219C122.177 34.3698 122.281 34.7812 122.49 35.1562C122.698 35.5208 123 35.8073 123.396 36.0156C123.802 36.224 124.292 36.3281 124.865 36.3281C125.636 36.3281 126.307 36.1719 126.88 35.8594C127.464 35.5365 127.922 35.1458 128.255 34.6875C128.589 34.2188 128.766 33.776 128.787 33.3594L130.005 35.0312C129.88 35.4583 129.667 35.9167 129.365 36.4062C129.063 36.8958 128.667 37.3646 128.177 37.8125C127.698 38.25 127.12 38.6094 126.443 38.8906C125.776 39.1719 125.005 39.3125 124.13 39.3125C123.026 39.3125 122.042 39.0938 121.177 38.6562C120.313 38.2083 119.636 37.6094 119.146 36.8594C118.656 36.099 118.412 35.2396 118.412 34.2812C118.412 33.3854 118.578 32.5938 118.912 31.9062C119.255 31.2083 119.755 30.625 120.412 30.1562C121.078 29.6875 121.891 29.3333 122.849 29.0938C123.807 28.8438 124.901 28.7188 126.13 28.7188H129.083ZM140.037 25.3125V39H136.271V22.0938H139.865L140.037 25.3125ZM145.208 21.9844L145.177 25.4844C144.948 25.4427 144.698 25.4115 144.427 25.3906C144.167 25.3698 143.906 25.3594 143.646 25.3594C143 25.3594 142.432 25.4531 141.943 25.6406C141.453 25.8177 141.042 26.0781 140.708 26.4219C140.386 26.7552 140.136 27.1615 139.958 27.6406C139.781 28.1198 139.677 28.6562 139.646 29.25L138.787 29.3125C138.787 28.25 138.891 27.2656 139.099 26.3594C139.307 25.4531 139.62 24.6562 140.037 23.9688C140.464 23.2812 140.995 22.7448 141.63 22.3594C142.276 21.974 143.021 21.7812 143.865 21.7812C144.094 21.7812 144.339 21.8021 144.599 21.8438C144.87 21.8854 145.073 21.9323 145.208 21.9844ZM156.099 22.0938V24.8438H146.568V22.0938H156.099ZM149.318 17.9531H153.083V34.3281C153.083 34.849 153.156 35.25 153.302 35.5312C153.458 35.8021 153.672 35.9844 153.943 36.0781C154.214 36.1719 154.531 36.2188 154.896 36.2188C155.156 36.2188 155.406 36.2031 155.646 36.1719C155.886 36.1406 156.078 36.1094 156.224 36.0781L156.24 38.9531C155.927 39.0469 155.563 39.1302 155.146 39.2031C154.74 39.276 154.271 39.3125 153.74 39.3125C152.875 39.3125 152.11 39.1615 151.443 38.8594C150.776 38.5469 150.255 38.0417 149.88 37.3438C149.505 36.6458 149.318 35.7188 149.318 34.5625V17.9531ZM169.068 16.1719V39H165.302V20.6406L159.724 22.5312V19.4219L168.615 16.1719H169.068ZM191.802 25.7188V29.4375C191.802 31.2188 191.625 32.7396 191.271 34C190.927 35.25 190.427 36.2656 189.771 37.0469C189.115 37.8281 188.328 38.401 187.412 38.7656C186.505 39.1302 185.49 39.3125 184.365 39.3125C183.469 39.3125 182.636 39.1979 181.865 38.9688C181.104 38.7396 180.417 38.3802 179.802 37.8906C179.188 37.401 178.662 36.7708 178.224 36C177.797 35.2188 177.464 34.2865 177.224 33.2031C176.995 32.1198 176.88 30.8646 176.88 29.4375V25.7188C176.88 23.9271 177.057 22.4167 177.412 21.1875C177.766 19.9479 178.271 18.9427 178.927 18.1719C179.583 17.3906 180.365 16.8229 181.271 16.4688C182.188 16.1146 183.208 15.9375 184.333 15.9375C185.24 15.9375 186.073 16.0521 186.833 16.2812C187.604 16.5 188.292 16.849 188.896 17.3281C189.511 17.8073 190.031 18.4323 190.458 19.2031C190.896 19.9635 191.229 20.8854 191.458 21.9688C191.688 23.0417 191.802 24.2917 191.802 25.7188ZM188.037 29.9688V25.1562C188.037 24.25 187.985 23.4531 187.88 22.7656C187.776 22.0677 187.62 21.4792 187.412 21C187.214 20.5104 186.964 20.1146 186.662 19.8125C186.36 19.5 186.016 19.276 185.63 19.1406C185.245 18.9948 184.813 18.9219 184.333 18.9219C183.75 18.9219 183.229 19.0365 182.771 19.2656C182.313 19.4844 181.927 19.8385 181.615 20.3281C181.302 20.8177 181.063 21.4635 180.896 22.2656C180.74 23.0573 180.662 24.0208 180.662 25.1562V29.9688C180.662 30.8854 180.714 31.6927 180.818 32.3906C180.922 33.0885 181.078 33.6875 181.287 34.1875C181.495 34.6771 181.745 35.0833 182.037 35.4062C182.339 35.7188 182.682 35.9479 183.068 36.0938C183.464 36.2396 183.896 36.3125 184.365 36.3125C184.958 36.3125 185.485 36.1979 185.943 35.9688C186.401 35.7396 186.787 35.375 187.099 34.875C187.412 34.3646 187.646 33.7031 187.802 32.8906C187.958 32.0781 188.037 31.1042 188.037 29.9688ZM199.583 25.9219H201.833C202.708 25.9219 203.432 25.7708 204.005 25.4688C204.589 25.1667 205.021 24.75 205.302 24.2188C205.583 23.6875 205.724 23.0781 205.724 22.3906C205.724 21.6719 205.594 21.0573 205.333 20.5469C205.083 20.026 204.698 19.625 204.177 19.3438C203.667 19.0625 203.016 18.9219 202.224 18.9219C201.557 18.9219 200.953 19.0573 200.412 19.3281C199.88 19.5885 199.458 19.9635 199.146 20.4531C198.833 20.9323 198.677 21.5052 198.677 22.1719H194.896C194.896 20.9635 195.214 19.8906 195.849 18.9531C196.485 18.0156 197.349 17.2812 198.443 16.75C199.547 16.2083 200.787 15.9375 202.162 15.9375C203.63 15.9375 204.912 16.1823 206.005 16.6719C207.11 17.151 207.969 17.8698 208.583 18.8281C209.198 19.7865 209.505 20.974 209.505 22.3906C209.505 23.0365 209.354 23.6927 209.052 24.3594C208.75 25.026 208.302 25.6354 207.708 26.1875C207.115 26.7292 206.375 27.1719 205.49 27.5156C204.604 27.849 203.578 28.0156 202.412 28.0156H199.583V25.9219ZM199.583 28.8594V26.7969H202.412C203.745 26.7969 204.88 26.9531 205.818 27.2656C206.766 27.5781 207.537 28.0104 208.13 28.5625C208.724 29.1042 209.156 29.724 209.427 30.4219C209.708 31.1198 209.849 31.8594 209.849 32.6406C209.849 33.7031 209.656 34.651 209.271 35.4844C208.896 36.3073 208.36 37.0052 207.662 37.5781C206.964 38.151 206.146 38.5833 205.208 38.875C204.281 39.1667 203.271 39.3125 202.177 39.3125C201.198 39.3125 200.261 39.1771 199.365 38.9062C198.469 38.6354 197.667 38.2344 196.958 37.7031C196.25 37.1615 195.688 36.4896 195.271 35.6875C194.865 34.875 194.662 33.9375 194.662 32.875H198.427C198.427 33.5521 198.583 34.151 198.896 34.6719C199.219 35.1823 199.667 35.5833 200.24 35.875C200.823 36.1667 201.49 36.3125 202.24 36.3125C203.031 36.3125 203.714 36.1719 204.287 35.8906C204.86 35.6094 205.297 35.1927 205.599 34.6406C205.912 34.0885 206.068 33.4219 206.068 32.6406C206.068 31.7552 205.896 31.0365 205.552 30.4844C205.208 29.9323 204.719 29.526 204.083 29.2656C203.448 28.9948 202.698 28.8594 201.833 28.8594H199.583Z" fill="#4F8B89"/>
</svg>
