<svg width="196" height="278" viewBox="0 0 196 278" fill="none" xmlns="http://www.w3.org/2000/svg">
<path d="M105.601 117.17L76.7666 117.475L78.7222 109.963L78.8748 108.852L82.0925 88.2168H101.108L104.325 109.046L104.575 110.643V110.782V110.865C104.575 110.865 104.575 110.949 104.575 111.004L105.601 117.17Z" fill="url(#paint0_linear_1913_18655)"/>
<path d="M121.216 54.1525C121.216 54.9301 121.216 55.6939 121.216 56.4437C121.163 60.9322 120.782 65.4108 120.079 69.8439C117.305 86.0769 109.275 97.6163 90.953 97.6163C71.6189 97.6163 64.0738 86.1324 61.6189 69.8439C60.9724 65.3315 60.6342 60.7801 60.6064 56.2216C60.6064 55.5273 60.6064 54.8329 60.6064 54.1109C60.6064 30.1294 74.1847 10.6748 90.9669 10.6748C107.749 10.6748 121.216 30.2127 121.216 54.1525Z" fill="#FDCFB1"/>
<path d="M82.0784 54.152C82.0784 57.3319 80.4418 59.9148 78.3891 59.9148C76.3364 59.9148 74.7275 57.3319 74.7275 54.152C74.7275 50.9721 76.2255 48.5975 78.1117 48.417C77.9115 48.9882 77.8083 49.589 77.8066 50.1944C77.8066 52.0552 78.7497 53.5549 79.9286 53.5549C80.7331 53.5549 81.4265 52.8745 81.7871 51.8469C81.9881 52.5985 82.0861 53.374 82.0784 54.152Z" fill="#191C1C"/>
<path d="M109.291 54.152C109.291 57.3319 107.641 59.9148 105.588 59.9148C103.536 59.9148 101.927 57.3736 101.927 54.152C101.927 50.9304 103.425 48.5975 105.325 48.417C105.113 48.9856 105.005 49.5876 105.006 50.1944C105.006 52.0552 105.949 53.5549 107.128 53.5549C107.932 53.5549 108.626 52.8745 108.986 51.8469C109.192 52.5978 109.295 53.3733 109.291 54.152Z" fill="#191C1C"/>
<path d="M99.4844 39.308C100.811 39.2738 102.138 39.3528 103.451 39.5441C104.765 39.7162 106.052 40.0569 107.279 40.5578C108.468 41.0893 109.567 41.8012 110.538 42.6685C111.493 43.501 112.358 44.4319 113.118 45.4458C111.337 43.7435 109.158 42.5164 106.78 41.877C105.63 41.6423 104.456 41.5537 103.285 41.6132C102.11 41.667 100.941 41.8156 99.7896 42.0575C99.6101 42.0983 99.4242 42.1029 99.2429 42.0711C99.0617 42.0392 98.8885 41.9716 98.7336 41.872C98.5787 41.7725 98.4451 41.6431 98.3407 41.4914C98.2362 41.3397 98.163 41.1686 98.1252 40.9883C98.0865 40.8095 98.0835 40.6249 98.1163 40.445C98.1491 40.2651 98.217 40.0934 98.3163 39.9399C98.4155 39.7864 98.544 39.654 98.6945 39.5503C98.845 39.4466 99.0145 39.3737 99.1932 39.3358C99.2877 39.3085 99.3865 39.2991 99.4844 39.308Z" fill="#191C1C"/>
<path d="M82.827 41.8629C81.6736 41.6524 80.5043 41.5409 79.3319 41.5296C78.1561 41.4955 76.9809 41.6169 75.8368 41.8906C73.5032 42.6052 71.386 43.8942 69.6787 45.6399C70.4031 44.6267 71.2356 43.6955 72.1614 42.8627C73.1075 41.9636 74.1886 41.2186 75.3652 40.6548C76.5727 40.1124 77.8455 39.7296 79.1516 39.5161C80.4568 39.2867 81.7793 39.1706 83.1044 39.1689C83.4723 39.1689 83.825 39.3152 84.0851 39.5757C84.3453 39.8361 84.4914 40.1893 84.4914 40.5576C84.4914 40.9259 84.3453 41.2791 84.0851 41.5395C83.825 41.7999 83.4723 41.9462 83.1044 41.9462H82.827V41.8629Z" fill="#191C1C"/>
<path d="M95.3785 69.2735C95.3785 67.385 93.3674 69.5652 90.8709 69.5652C88.3744 69.5652 86.3633 67.385 86.3633 69.2735C86.3633 71.1621 88.3882 72.6757 90.8709 72.6757C93.3535 72.6757 95.3785 71.1482 95.3785 69.2735Z" fill="#FC7E7E"/>
<path d="M102.62 77.5085C101.893 79.432 100.801 81.1959 99.4021 82.702C96.7485 81.3428 93.8357 80.5664 90.8584 80.4246C88.1295 80.4759 85.4725 81.3097 83.2024 82.8269C81.805 81.2742 80.7426 79.4495 80.0818 77.4669C80.0224 77.287 80.0066 77.0957 80.0356 76.9085C80.0647 76.7214 80.1378 76.5438 80.2489 76.3905C80.36 76.2372 80.5059 76.1126 80.6746 76.0269C80.8433 75.9412 81.0299 75.8969 81.2191 75.8977C81.2191 75.8977 88.4867 76.6892 90.9278 76.6892C93.5907 76.6892 101.593 75.8977 101.593 75.8977C101.778 75.9117 101.957 75.9686 102.116 76.0638C102.275 76.159 102.409 76.29 102.509 76.4462C102.608 76.6025 102.67 76.7799 102.69 76.9643C102.709 77.1486 102.685 77.335 102.62 77.5085Z" fill="#191C1C"/>
<path d="M99.4285 82.7024C98.3782 83.8337 97.1019 84.7312 95.6826 85.3364C94.2632 85.9417 92.7325 86.2412 91.19 86.2156C89.6956 86.2428 88.2122 85.9552 86.8359 85.3715C85.4597 84.7878 84.2213 83.921 83.2012 82.8274C85.487 81.2999 88.1647 80.4658 90.9126 80.425C93.8805 80.5707 96.7834 81.347 99.4285 82.7024Z" fill="#FC7E7E"/>
<path d="M130.706 63.4141C130.359 65.261 126.198 71.3987 120.054 69.8851C120.757 65.4519 121.137 60.9733 121.191 56.4849C121.191 56.4849 122.439 52.1802 126.156 52.1802C126.766 52.1943 127.369 52.302 127.945 52.4996C133.133 54.152 131.052 61.5395 130.706 63.4141Z" fill="#FCBF99"/>
<path d="M121.481 61.7894C121.481 61.7894 124.255 54.8463 126.877 55.5129C127.212 55.5801 127.529 55.7162 127.809 55.9125C128.088 56.1089 128.324 56.3612 128.502 56.6536C128.679 56.946 128.794 57.272 128.839 57.6111C128.884 57.9501 128.858 58.2948 128.763 58.6234C128.763 58.6234 127.931 56.9987 126.516 57.4014C125.101 57.8041 121.481 61.7894 121.481 61.7894Z" fill="#FC7E7E"/>
<path d="M61.5508 69.9267C55.5592 71.3153 51.4261 65.3026 51.0932 63.4141C50.7603 61.5255 48.7354 54.1936 53.8671 52.4995C54.7558 52.1782 55.7163 52.1109 56.641 52.3051C59.2207 52.8328 60.3442 55.5684 60.6077 56.3043C60.6124 60.8613 60.9275 65.4126 61.5508 69.9267Z" fill="#FCBF99"/>
<path d="M60.3159 61.7894C60.3159 61.7894 57.542 54.8463 54.9345 55.5129C54.5985 55.5781 54.2799 55.713 53.999 55.9089C53.7182 56.1048 53.4814 56.3572 53.3038 56.6501C53.1261 56.943 53.0116 57.2699 52.9676 57.6097C52.9236 57.9495 52.9511 58.2948 53.0482 58.6234C53.0482 58.6234 54.0885 56.721 55.5031 57.1376C56.9178 57.5541 60.3159 61.7894 60.3159 61.7894Z" fill="#FC7E7E"/>
<path d="M72.105 26.2407C64.6154 34.4613 60.5239 56.3043 60.5239 56.3043C60.2604 55.5684 59.1369 52.8328 56.5572 52.3051C55.9886 49.0141 51.4948 21.7555 60.302 17.0619C60.7178 16.8202 61.154 16.6157 61.6057 16.4509C64.3889 20.4084 67.9645 23.7424 72.105 26.2407Z" fill="#191C1C"/>
<path d="M126.199 52.1802C122.482 52.1802 121.233 56.4849 121.233 56.4849C121.233 56.4849 116.323 31.7397 106.781 22.4498C110.193 19.7975 112.329 17.1591 112.454 15.6455C112.629 12.8742 111.988 10.1123 110.609 7.70264C116.018 7.70264 120.318 8.35529 122.426 9.855C131.053 15.8955 126.296 51.1248 126.199 52.1802Z" fill="#191C1C"/>
<path d="M112.508 15.6455C112.424 17.1591 110.247 19.8114 106.835 22.4498C101.099 26.9521 94.2192 29.7565 86.9737 30.5454C81.6934 30.676 76.5013 29.1728 72.1055 26.2407C67.9719 23.7626 64.3968 20.4527 61.6063 16.5204C59.2411 13.3458 57.9268 9.51001 57.8477 5.55027C57.8477 5.55027 69.0681 8.32751 74.8795 7.74429C80.6908 7.16107 91.2455 -2.47595 101.232 0.606784C105.212 1.63459 108.632 4.18162 110.76 7.70263C112.105 10.1226 112.712 12.8839 112.508 15.6455Z" fill="#191C1C"/>
<path d="M78.6663 109.962C77.5428 115.433 68.9576 158.272 68.1254 199.848C61.9951 199.098 53.7427 200.361 50.414 199.848C46.1422 199.223 34.5472 195.682 28.9023 193.627C29.4987 187.586 30.0951 181.615 30.7193 175.838C34.575 161.952 39.1797 141.526 38.9023 122.724C39.0679 122.327 39.3302 121.979 39.6651 121.71C45.0049 118.627 61.7177 111.976 78.6663 109.962Z" fill="#ECEFEE"/>
<path d="M67.6127 231.8C67.0579 260.225 66.4199 278 66.4199 278H21.6768C21.6768 278 23.4243 254.588 25.9347 225.885C37.9735 231.62 54.7001 236.702 61.5517 236.702C63.8541 236.702 65.879 234.758 67.6127 231.8Z" fill="#ECEFEE"/>
<path d="M111.026 278C111.026 278 111.304 215.776 111.026 200.14C110.749 184.504 104.591 110.574 104.591 110.574C119.667 112.421 132.039 115.879 135.562 120.294C137.24 122.711 139.93 144.831 142.69 171.784C144.077 185.004 145.464 199.376 146.657 213.165C138.211 220.705 129.709 228.94 130.083 232.398C130.208 233.62 131.72 235.841 133.925 238.466C133.925 238.466 119.057 244.118 119.057 249.978C119.057 255.838 135.52 262.253 138.016 261.42C140.513 260.587 146.893 251.075 146.893 251.075C148.072 252.019 149.195 252.866 150.208 253.546C151.442 268.155 152.233 277.861 152.233 277.861L111.026 278Z" fill="#ECEFEE"/>
<path d="M111.025 278H66.4209C66.4209 278 67.0589 260.226 67.6137 231.8C67.794 222.886 67.9604 212.901 68.0853 202.098C68.0853 201.348 68.0853 200.584 68.0853 199.848C68.2517 191.864 68.6816 183.838 69.3058 176.033C69.4029 174.881 69.4861 173.728 69.6109 172.59C69.7635 170.701 69.9438 168.799 70.1241 166.91C70.1316 166.869 70.1316 166.827 70.1241 166.785C72.8148 139.499 76.9479 118.184 78.1268 112.449C78.1961 112.143 79.8744 117.031 92.4263 116.934C102.232 116.934 104.659 112.907 104.659 112.907L105.075 117.17C106.185 130.834 108.765 162.703 110.096 183.532C110.582 190.864 110.901 196.835 110.97 200.195C111.303 215.776 111.025 278 111.025 278Z" fill="#4F8B89"/>
<path d="M147.005 251.199C147.005 251.199 140.639 260.711 138.129 261.544C135.618 262.378 119.169 255.99 119.169 250.102C119.169 244.214 134.037 238.591 134.037 238.591C137.991 243.158 142.33 247.376 147.005 251.199Z" fill="#FDCFB1"/>
<path d="M154.368 255.546C153.563 255.643 152.093 254.921 150.207 253.685C149.194 253.004 148.071 252.157 146.892 251.213C142.217 247.39 137.878 243.172 133.924 238.604C131.719 235.98 130.207 233.758 130.082 232.536C129.708 229.079 138.21 220.844 146.656 213.304C155.103 205.764 163.522 198.848 162.676 198.209C161.483 197.307 149.513 181.157 142.69 171.923C139.916 144.97 137.239 122.849 135.561 120.433C137.364 122.696 185.02 182.712 194.035 193.71C203.286 204.903 158.279 255.115 154.368 255.546Z" fill="#DAE5E3"/>
<path d="M124.379 152.19L110.148 183.531C108.761 162.702 106.237 130.833 105.128 117.169L104.49 110.559L104.323 108.976C114.351 112.906 121.882 130.417 121.882 130.417L113.033 136.61L124.379 152.19Z" fill="#C7DAD9"/>
<path d="M78.8742 108.852C74.5455 131.067 71.3606 153.491 69.3319 176.034L58.5137 152.191L69.8728 136.611L61.0102 130.417C61.0102 130.417 68.6939 112.56 78.8742 108.852Z" fill="#C7DAD9"/>
<path d="M114.474 167.209L71.5761 145.457C70.4144 144.868 68.9957 145.333 68.4074 146.496L41.8565 198.984C41.2682 200.147 41.733 201.568 42.8947 202.157L85.7926 223.909C86.9543 224.498 88.373 224.032 88.9613 222.869L115.512 170.381C116.101 169.218 115.636 167.798 114.474 167.209Z" fill="#605D62"/>
<path d="M112.189 170.159L70.5283 149.034L45.1556 199.193L86.8161 220.318L112.189 170.159Z" fill="white"/>
<path d="M103.842 160.269L83.4258 149.917L80.8064 155.095L101.222 165.447L103.842 160.269Z" fill="#7B93B0"/>
<path d="M96.4049 184.437L68.3672 170.22L67.0575 172.809L95.0952 187.026L96.4049 184.437Z" fill="#C7DAD9"/>
<path d="M93.9361 189.34L65.8984 175.123L64.5887 177.712L92.6264 191.929L93.9361 189.34Z" fill="#C7DAD9"/>
<path d="M91.4478 194.242L63.4102 180.025L62.1005 182.615L90.1382 196.831L91.4478 194.242Z" fill="#C7DAD9"/>
<path d="M88.9566 199.157L60.9189 184.94L59.6093 187.53L87.6469 201.746L88.9566 199.157Z" fill="#C7DAD9"/>
<path d="M78.9363 200.23L58.4463 189.84L57.1366 192.429L77.6266 202.819L78.9363 200.23Z" fill="#C7DAD9"/>
<path d="M86.847 173.798C89.7731 173.798 92.1452 171.423 92.1452 168.493C92.1452 165.564 89.7731 163.189 86.847 163.189C83.9209 163.189 81.5488 165.564 81.5488 168.493C81.5488 171.423 83.9209 173.798 86.847 173.798Z" fill="#FC7E7E"/>
<path d="M90.5669 169.41L89.7902 170.965L87.2382 169.674L85.9483 172.229L84.3811 171.437L85.6709 168.882L83.1328 167.591L83.9234 166.035L86.4615 167.327L87.7514 164.772L89.3186 165.563L88.0288 168.118L90.5669 169.41Z" fill="white"/>
<path d="M75.3375 206.014C74.3396 212.843 72.6623 219.556 70.3306 226.052C69.5709 228.043 68.6429 229.967 67.5566 231.801C65.823 234.758 63.798 236.702 61.4957 236.702C54.6441 236.702 37.9174 231.62 25.8787 225.885C23.6746 224.861 21.5264 223.721 19.4432 222.469C7.91759 215.526 -0.528961 206.569 0.0258208 199.862C0.580603 193.155 37.2794 125.641 38.8606 122.849V122.738C39.1379 141.54 34.5333 162.022 30.6775 175.853C27.9868 185.573 25.6845 191.919 25.6845 192.211C26.6613 192.843 27.7339 193.312 28.8606 193.6C34.5055 195.641 46.1005 199.154 50.3723 199.821C53.701 200.321 61.9534 199.057 68.0837 199.821C72.5636 200.376 75.8645 201.959 75.3375 206.014Z" fill="#DAE5E3"/>
<path d="M85.8778 231.134C82.4937 231.773 74.0471 227.885 70.3301 226.052C72.6618 219.556 74.3391 212.843 75.337 206.014C83.1872 203.486 90.5935 193.322 93.728 194.294C96.8625 195.266 88.7904 206.986 88.7904 206.986C88.7904 206.986 97.0012 209.152 97.8611 211.929C98.7211 214.707 90.2606 230.301 85.8778 231.134Z" fill="#FDCFB1"/>
<path d="M64.962 134.305L63.3115 133.805C63.5196 133.125 68.3878 117.239 71.4113 113.157C73.4624 110.498 76.1277 108.377 79.1783 106.977L78.8593 108.991C76.4517 110.203 74.3724 111.98 72.7983 114.17C69.9412 117.975 65.0036 134.083 64.962 134.305Z" fill="#7B93B0"/>
<path d="M112.245 112.906C111.995 112.9 111.747 112.957 111.524 113.073C111.214 113.224 110.958 113.466 110.789 113.767C110.089 112.776 109.198 111.936 108.168 111.295C106.952 110.496 105.677 109.79 104.354 109.185L104.076 107.143C105.835 107.941 107.532 108.869 109.152 109.921C110.365 110.708 111.416 111.721 112.245 112.906Z" fill="#7B93B0"/>
<path d="M63.0485 141.887C65.3082 141.887 67.1401 140.053 67.1401 137.791C67.1401 135.528 65.3082 133.694 63.0485 133.694C60.7889 133.694 58.957 135.528 58.957 137.791C58.957 140.053 60.7889 141.887 63.0485 141.887Z" fill="#4F8B89"/>
<path d="M128.196 136.416C128.29 136.663 128.324 136.93 128.295 137.193C128.266 137.456 128.175 137.708 128.029 137.929C127.843 138.258 127.541 138.505 127.183 138.624C126.973 138.71 126.748 138.752 126.522 138.748C126.295 138.744 126.072 138.693 125.865 138.6C125.659 138.506 125.474 138.371 125.321 138.204C125.168 138.036 125.052 137.838 124.978 137.624C123.05 132.444 118.848 125.279 116.088 126.237C112.565 127.459 113.119 136.582 113.924 140.79C113.987 141.104 113.96 141.429 113.848 141.729C113.735 142.028 113.54 142.29 113.286 142.484C113.075 142.648 112.828 142.758 112.565 142.803H112.468C112.166 142.846 111.858 142.803 111.58 142.678C111.317 142.575 111.085 142.405 110.905 142.187C110.726 141.968 110.605 141.707 110.554 141.429C110.248 139.887 107.96 126.932 113.91 123.46C113.07 120.676 112.008 117.964 110.734 115.35C110.611 115.102 110.546 114.829 110.546 114.552C110.546 114.275 110.611 114.002 110.734 113.754C110.903 113.452 111.159 113.21 111.469 113.059C111.692 112.944 111.94 112.886 112.19 112.893C112.518 112.89 112.841 112.979 113.12 113.151C113.4 113.323 113.626 113.57 113.771 113.865C115.159 116.71 116.314 119.664 117.225 122.696C123.078 123.418 127.308 134.055 128.196 136.416Z" fill="#4F8B89"/>
<path d="M135.018 163.244C135.072 163.966 134.934 164.69 134.615 165.341C134.102 166.73 133.686 167.799 132.313 167.285C130.94 166.771 131.356 165.66 131.869 164.299C132.258 163.244 132.868 162.425 133.575 162.3C133.77 162.246 133.976 162.246 134.172 162.3C134.388 162.36 134.582 162.481 134.732 162.649C134.882 162.816 134.981 163.022 135.018 163.244Z" fill="#4F8B89"/>
<path d="M136.6 158.675C136.415 160.296 135.875 161.855 135.019 163.244C134.973 163.032 134.87 162.837 134.72 162.68C134.571 162.524 134.382 162.411 134.173 162.355C133.978 162.301 133.772 162.301 133.577 162.355C134.262 161.237 134.706 159.989 134.88 158.689C134.88 157.398 130.609 147.58 126.559 138.804C126.777 138.803 126.994 138.76 127.197 138.679C127.555 138.56 127.856 138.313 128.043 137.985C130.359 142.956 136.642 156.689 136.6 158.675Z" fill="#7B93B0"/>
<path d="M119.525 166.619C119.364 166.809 119.267 167.046 119.247 167.295C119.227 167.544 119.285 167.793 119.414 168.007C118.111 167.521 116.086 166.619 115.517 165.105C114.837 163.425 111.98 145.303 111.578 142.734C111.856 142.859 112.164 142.902 112.466 142.859H112.563C112.826 142.814 113.074 142.704 113.284 142.54C114.574 150.788 116.64 163.369 117.112 164.494C117.376 165.175 118.638 165.883 119.886 166.369C119.753 166.432 119.632 166.517 119.525 166.619Z" fill="#7B93B0"/>
<path d="M123.549 169.993C122.633 171.118 121.718 170.354 120.608 169.423C120.113 169.055 119.705 168.581 119.416 168.035C119.287 167.821 119.228 167.572 119.248 167.323C119.268 167.074 119.365 166.837 119.527 166.646C119.624 166.526 119.742 166.422 119.873 166.341C120.636 165.785 121.496 166.341 122.467 167.188C123.438 168.035 124.492 168.84 123.549 169.993Z" fill="#4F8B89"/>
<defs>
<linearGradient id="paint0_linear_1913_18655" x1="91.1909" y1="116.239" x2="91.1909" y2="87.3697" gradientUnits="userSpaceOnUse">
<stop stop-color="#FFC6A1"/>
<stop offset="1" stop-color="#E2AB87"/>
</linearGradient>
</defs>
</svg>
