<svg width="26" height="20" viewBox="0 0 26 20" fill="none" xmlns="http://www.w3.org/2000/svg">
<g clip-path="url(#clip0_1940_2427)">
<path fill-rule="evenodd" clip-rule="evenodd" d="M0 0.383789H25.6431V19.6161H0V0.383789Z" fill="#6FDCFF"/>
<path fill-rule="evenodd" clip-rule="evenodd" d="M2.41235 19.0953C2.54458 19.2235 2.5005 19.4359 2.86512 19.4078C3.41805 19.4078 3.43407 19.0713 3.43407 18.8349C3.43407 18.5985 2.60468 18.2699 2.56461 17.9213C2.52454 17.5727 2.75693 17.4806 2.94926 17.4806C3.13757 17.4806 3.2698 17.5888 3.2698 17.6849C3.2698 17.7811 3.18165 17.8131 3.04542 17.8131C2.90919 17.8131 3.10552 17.745 2.98932 17.6929C2.87313 17.6408 2.797 17.7731 2.797 17.8532C2.797 17.9414 3.08549 17.9654 3.27781 17.9053C3.31788 18.0936 3.3339 18.1056 3.06545 18.4262C3.25778 18.302 3.2738 18.2739 3.48616 18.346C3.2738 18.1617 3.43407 17.7931 3.43808 17.701C3.44209 17.6088 3.39801 17.4966 3.31788 17.4405C3.16161 17.3003 2.82906 17.2923 2.62872 17.3844C2.33623 17.5126 2.3202 17.8973 2.39633 18.0255L3.20569 18.8429C3.26178 18.939 3.28582 19.2115 2.94124 19.2235C2.58064 19.2516 2.45242 18.7587 2.38831 18.5945C2.30417 18.7748 2.20801 19.2676 1.8434 19.2395C1.49882 19.2275 1.43471 18.9591 1.49081 18.8589L2.3202 18.0175C2.40033 17.8893 2.38431 17.5046 2.09182 17.3764C1.89148 17.2842 1.55892 17.2963 1.40666 17.4325C1.31852 17.4886 1.27044 17.5968 1.27845 17.6929C1.28646 17.7891 1.44273 18.1537 1.23438 18.334C1.44273 18.2659 1.46276 18.2939 1.65508 18.4141C1.38663 18.0976 1.40666 18.0856 1.44273 17.8933C1.63505 17.9574 1.92353 17.9333 1.92353 17.8492C1.92353 17.7651 1.8434 17.6248 1.7272 17.6809C1.61501 17.737 1.80734 17.8051 1.67111 17.8051C1.53889 17.8051 1.44273 17.7771 1.44273 17.6849C1.44273 17.5928 1.57495 17.4726 1.76727 17.4726C1.95959 17.4726 2.18798 17.5687 2.14791 17.9173C2.10784 18.2659 1.26643 18.6425 1.26643 18.8789C1.26643 19.1193 1.32252 19.4038 1.87545 19.4038C2.23606 19.4319 2.28013 19.2195 2.41235 19.0913V19.0953Z" fill="#FFE400"/>
<path fill-rule="evenodd" clip-rule="evenodd" d="M2.36806 14.1389C2.50028 14.0107 2.60847 13.634 2.96907 13.6581C3.522 13.6581 3.73035 13.9666 3.73035 14.203C3.73035 14.4394 2.60847 16.3666 2.5684 16.7152C2.52833 17.0638 2.76072 17.16 2.94904 17.16C3.14136 17.16 3.27358 17.0518 3.27358 16.9516C3.27358 16.8514 3.17742 16.8314 3.0452 16.8314C2.91298 16.8314 3.10129 16.8995 2.98911 16.9516C2.87692 17.0037 2.79678 16.8715 2.79678 16.7873C2.79678 16.7032 3.08527 16.6752 3.27759 16.7393C3.31365 16.5509 3.32968 16.5389 3.06523 16.2184C3.25756 16.3386 3.27358 16.3706 3.48594 16.2985C3.27358 16.4828 3.42985 16.8474 3.43786 16.9396C3.44587 17.0318 3.39779 17.1479 3.31365 17.204C3.1614 17.3443 2.82483 17.3483 2.62449 17.2601C2.33601 17.1279 2.31998 16.7473 2.39611 16.6191L3.48594 14.2711C3.54604 14.175 3.39379 13.8544 3.04921 13.8424C2.6886 13.8143 2.56439 14.195 2.50028 14.3593L2.99311 14.3192C2.99311 14.3192 3.01315 14.3993 2.99311 14.4474C2.82776 14.4595 2.66322 14.4809 2.50028 14.5115L2.48025 14.7599H2.72066L2.70463 14.8721C2.70463 14.8721 2.50028 14.8561 2.48025 14.8721C2.46022 14.8841 2.44018 15.1205 2.44018 15.1205C2.44018 15.1205 2.40012 15.1366 2.36005 15.1366C2.31998 15.1366 2.27991 15.1205 2.27991 15.1205C2.27991 15.1205 2.26389 14.8841 2.24385 14.8721C2.22382 14.8561 2.01948 14.8721 2.01948 14.8721L1.99944 14.7599H2.24385L2.22382 14.5115C2.22382 14.5115 1.98342 14.4634 1.73099 14.4474C1.71496 14.3993 1.73099 14.3232 1.73099 14.3232L2.22382 14.3593C2.15971 14.195 2.0355 13.8143 1.6749 13.8384C1.33032 13.8544 1.17806 14.175 1.23416 14.2711L2.32399 16.6191C2.40012 16.7433 2.38409 17.1279 2.0956 17.2601C1.89527 17.3483 1.5587 17.3403 1.40645 17.204C1.3223 17.1479 1.27422 17.0358 1.28224 16.9436C1.29025 16.8514 1.44251 16.4788 1.23416 16.3025C1.44651 16.3706 1.46655 16.3426 1.65486 16.2184C1.39042 16.5389 1.40645 16.5509 1.44651 16.7393C1.63483 16.6752 1.92332 16.6992 1.92332 16.7873C1.92332 16.8675 1.84318 17.0077 1.73099 16.9516C1.6188 16.8955 1.81113 16.8314 1.6749 16.8314C1.54268 16.8314 1.44651 16.8555 1.44651 16.9516C1.44651 17.0478 1.57874 17.16 1.76705 17.16C1.95537 17.16 2.18776 17.0638 2.1517 16.7192C2.11163 16.3706 0.989746 14.4354 0.989746 14.203C0.989746 13.9626 1.1981 13.6621 1.75103 13.6621C2.11163 13.634 2.24385 14.0107 2.37207 14.1389H2.36806Z" fill="#FFE400"/>
<path fill-rule="evenodd" clip-rule="evenodd" d="M2.36806 13.1813C2.50028 13.3095 2.60847 13.6861 2.96907 13.6621C3.522 13.6621 3.73035 13.3536 3.73035 13.1172C3.73035 12.8808 2.60847 10.9535 2.5684 10.6049C2.52833 10.2564 2.76072 10.1602 2.94904 10.1602C3.14136 10.1602 3.27358 10.2684 3.27358 10.3685C3.27358 10.4687 3.17742 10.4887 3.0452 10.4887C2.91298 10.4887 3.10129 10.4246 2.98911 10.3685C2.87692 10.3124 2.79678 10.4487 2.79678 10.5328C2.79678 10.617 3.08527 10.645 3.27759 10.5809C3.31365 10.7692 3.32968 10.7812 3.06523 11.1018C3.25756 10.9816 3.27358 10.9495 3.48594 11.0216C3.27358 10.8373 3.42985 10.4727 3.43786 10.3806C3.44587 10.2884 3.39779 10.1722 3.31365 10.1161C3.1614 9.97989 2.82483 9.97187 2.62449 10.06C2.33601 10.1922 2.31998 10.5729 2.39611 10.7011L3.48594 13.045C3.54604 13.1412 3.39379 13.4617 3.04921 13.4738C2.6886 13.5018 2.56439 13.1212 2.50028 12.9569L2.99311 12.997C2.99311 12.997 3.01315 12.9168 2.99311 12.8687C2.82776 12.8567 2.66322 12.8353 2.50028 12.8046L2.48025 12.5562H2.72066L2.70463 12.444C2.70463 12.444 2.50028 12.4601 2.48025 12.444C2.46022 12.432 2.44018 12.1956 2.44018 12.1956C2.44018 12.1956 2.40012 12.1796 2.36005 12.1796C2.31998 12.1796 2.27991 12.1956 2.27991 12.1956C2.27991 12.1956 2.26389 12.432 2.24385 12.444C2.22382 12.4601 2.01948 12.444 2.01948 12.444L1.99944 12.5562H2.24385L2.22382 12.8046C2.22382 12.8046 1.98342 12.8527 1.73099 12.8687C1.71496 12.9168 1.73099 12.993 1.73099 12.993L2.22382 12.9569C2.15971 13.1212 2.0355 13.5018 1.6749 13.4778C1.33032 13.4617 1.17806 13.1412 1.23416 13.045L2.32399 10.7011C2.40012 10.5729 2.38409 10.1922 2.0956 10.06C1.89527 9.97187 1.5587 9.97989 1.40645 10.1161C1.3223 10.1722 1.27422 10.2844 1.28224 10.3766C1.29025 10.4687 1.44251 10.8373 1.23416 11.0176C1.44651 10.9495 1.46655 10.9776 1.65486 11.1018C1.39042 10.7812 1.40645 10.7692 1.44651 10.5809C1.63483 10.645 1.92332 10.621 1.92332 10.5328C1.92332 10.4527 1.84318 10.3124 1.73099 10.3685C1.6188 10.4246 1.81113 10.4887 1.6749 10.4887C1.54268 10.4887 1.44651 10.4647 1.44651 10.3685C1.44651 10.2724 1.57874 10.1602 1.76705 10.1602C1.95537 10.1602 2.18776 10.2564 2.1517 10.6009C2.11163 10.9495 0.989746 12.8848 0.989746 13.1172C0.989746 13.3576 1.1981 13.6581 1.75103 13.6581C2.11163 13.6861 2.24385 13.3095 2.37207 13.1813H2.36806Z" fill="#FFE400"/>
<path fill-rule="evenodd" clip-rule="evenodd" d="M2.36806 6.81858C2.50028 6.69036 2.60847 6.31373 2.96907 6.33777C3.522 6.33777 3.73035 6.64629 3.73035 6.88269C3.73035 7.11908 2.60847 9.04632 2.5684 9.39891C2.52833 9.74349 2.76072 9.83965 2.94904 9.83965C3.14136 9.83965 3.27358 9.73147 3.27358 9.63531C3.27358 9.53915 3.17742 9.5071 3.0452 9.5071C2.91298 9.5071 3.10129 9.57922 2.98911 9.63531C2.87692 9.69141 2.79678 9.55117 2.79678 9.46703C2.79678 9.38689 3.08527 9.35484 3.27759 9.41895C3.31365 9.23063 3.32968 9.21861 3.06523 8.89807C3.25756 9.02228 3.27358 9.05033 3.48594 8.97821C3.27358 9.16252 3.42985 9.53114 3.43786 9.61928C3.44587 9.70743 3.39779 9.82763 3.31365 9.88373C3.1614 10.024 2.82483 10.028 2.62449 9.93982C2.33601 9.8076 2.31998 9.42696 2.39611 9.29875L3.48594 6.95481C3.54604 6.85865 3.39379 6.53811 3.04921 6.52609C2.6886 6.49804 2.56439 6.87868 2.50028 7.04295L2.99311 7.00289C2.99311 7.00289 3.01315 7.08302 2.99311 7.1311C2.73668 7.14713 2.50028 7.19521 2.50028 7.19521L2.48025 7.44363H2.72066L2.70463 7.55582C2.70463 7.55582 2.50028 7.5438 2.48025 7.55582C2.46022 7.56784 2.44018 7.80824 2.44018 7.80824C2.44018 7.80824 2.40012 7.82026 2.36005 7.82026C2.31998 7.82026 2.27991 7.80824 2.27991 7.80824C2.27991 7.80824 2.26389 7.56784 2.24385 7.55582C2.22382 7.5438 2.01948 7.55582 2.01948 7.55582L1.99944 7.44363H2.24385L2.22382 7.19521C2.22382 7.19521 1.98342 7.14713 1.73099 7.1311C1.71496 7.08302 1.73099 7.00689 1.73099 7.00689L2.22382 7.04295C2.15971 6.87868 2.0355 6.49804 1.6749 6.52208C1.33032 6.53811 1.17806 6.85865 1.23416 6.95481L2.32399 9.29875C2.40012 9.42696 2.38409 9.8076 2.0956 9.93982C1.89527 10.028 1.5587 10.02 1.40645 9.88373C1.3223 9.82763 1.27422 9.71545 1.28224 9.62329C1.29025 9.53114 1.44251 9.16252 1.23416 8.98221C1.44651 9.05033 1.46655 9.02228 1.65486 8.89807C1.39042 9.21861 1.40645 9.23063 1.44651 9.41895C1.63483 9.35484 1.92332 9.38289 1.92332 9.46703C1.92332 9.54716 1.84318 9.6874 1.73099 9.6313C1.6188 9.57922 1.81113 9.5111 1.6749 9.5111C1.54268 9.5111 1.44651 9.53514 1.44651 9.6313C1.44651 9.72747 1.57874 9.83965 1.76705 9.83965C1.95537 9.83965 2.18776 9.74349 2.1517 9.39891C2.11163 9.05033 0.989746 7.11908 0.989746 6.88269C0.989746 6.64629 1.1981 6.34178 1.75103 6.34178C2.11163 6.31373 2.24385 6.69036 2.37207 6.82258L2.36806 6.81858Z" fill="#FFE400"/>
<path fill-rule="evenodd" clip-rule="evenodd" d="M2.36806 5.86095C2.50028 5.98917 2.60847 6.36981 2.96907 6.34176C3.522 6.34176 3.73035 6.03324 3.73035 5.79685C3.73035 5.56045 2.60847 3.63321 2.5684 3.28462C2.52833 2.93604 2.76072 2.83988 2.94904 2.83988C3.14136 2.83988 3.27358 2.95207 3.27358 3.04823C3.27358 3.14439 3.17742 3.17244 3.0452 3.17244C2.91298 3.17244 3.10129 3.10432 2.98911 3.04823C2.87692 2.99213 2.79678 3.12836 2.79678 3.2125C2.79678 3.29664 3.08527 3.32469 3.27759 3.26058C3.31365 3.4489 3.32968 3.46092 3.06523 3.78146C3.25756 3.66126 3.27358 3.6292 3.48594 3.70132C3.27358 3.52102 3.42985 3.1524 3.43786 3.06025C3.44587 2.96809 3.39779 2.8519 3.31365 2.7958C3.1614 2.65957 2.82483 2.65156 2.62449 2.74371C2.33601 2.87193 2.31998 3.25658 2.39611 3.38079L3.48594 5.72873C3.54604 5.82489 3.39379 6.14543 3.04921 6.16146C2.6886 6.1855 2.56439 5.80887 2.50028 5.64058L2.99311 5.68065C2.99311 5.68065 3.01315 5.60052 2.99311 5.55244C2.82785 5.54155 2.66332 5.52149 2.50028 5.49233L2.48025 5.23991H2.72066L2.70463 5.12772C2.70463 5.12772 2.50028 5.14375 2.48025 5.12772C2.46022 5.1157 2.44018 4.8793 2.44018 4.8793C2.44018 4.8793 2.40012 4.86328 2.36005 4.86328C2.31998 4.86328 2.27991 4.8793 2.27991 4.8793C2.27991 4.8793 2.26389 5.1157 2.24385 5.12772C2.22382 5.14375 2.01948 5.12772 2.01948 5.12772L1.99944 5.23991H2.24385L2.22382 5.49233C2.22382 5.49233 1.98342 5.53641 1.73099 5.55244C1.71496 5.60452 1.73099 5.68065 1.73099 5.68065L2.22382 5.64058C2.15971 5.80887 2.0355 6.1855 1.6749 6.16146C1.33032 6.14543 1.17806 5.82489 1.23416 5.72873L2.32399 3.38079C2.40012 3.25658 2.38409 2.87193 2.0956 2.73971C1.89527 2.65156 1.5587 2.65957 1.40645 2.7958C1.3223 2.8519 1.27422 2.96409 1.28224 3.05624C1.29025 3.14839 1.44251 3.52102 1.23416 3.69732C1.44651 3.6292 1.46655 3.65725 1.65486 3.78146C1.39042 3.46092 1.40645 3.4489 1.44651 3.26058C1.63884 3.32469 1.92332 3.30065 1.92332 3.2125C1.92332 3.13237 1.84318 2.99213 1.73099 3.04823C1.6188 3.10432 1.81113 3.17244 1.6749 3.17244C1.54268 3.17244 1.44651 3.14439 1.44651 3.04823C1.44651 2.95207 1.57874 2.83988 1.76705 2.83988C1.95537 2.83988 2.19177 2.93604 2.1517 3.28062C2.11163 3.6292 0.989746 5.56446 0.989746 5.79685C0.989746 6.03725 1.1981 6.34176 1.75103 6.34176C2.11163 6.36981 2.24385 5.98917 2.37207 5.86095H2.36806Z" fill="#FFE400"/>
<path fill-rule="evenodd" clip-rule="evenodd" d="M2.41235 0.904648C2.54458 0.776432 2.5005 0.564075 2.86512 0.592122C3.41805 0.592122 3.43407 0.928688 3.43407 1.16509C3.43407 1.40148 2.60468 1.73003 2.56461 2.07862C2.52454 2.42721 2.75693 2.51936 2.94926 2.51936C3.13757 2.51936 3.2698 2.41118 3.2698 2.31502C3.2698 2.21886 3.18165 2.1868 3.04542 2.1868C2.90919 2.1868 3.10552 2.25492 2.98932 2.307C2.87313 2.35909 2.797 2.22687 2.797 2.14673C2.797 2.05859 3.08549 2.03054 3.27781 2.09465C3.31788 1.90633 3.3339 1.89431 3.06545 1.57377C3.25778 1.69798 3.2738 1.72603 3.48616 1.65391C3.2738 1.83822 3.43407 2.20684 3.43808 2.29899C3.44209 2.39115 3.39801 2.50333 3.31788 2.55943C3.15761 2.70768 2.82505 2.70768 2.62471 2.61953C2.33222 2.49131 2.31619 2.10667 2.39232 1.97845L3.20569 1.15707C3.26178 1.06091 3.28582 0.788452 2.94124 0.776432C2.58064 0.748385 2.45242 1.24121 2.38831 1.40549C2.30417 1.22519 2.20801 0.728351 1.8434 0.756398C1.49882 0.768419 1.43471 1.03687 1.49081 1.13704L2.3202 1.97845C2.40033 2.10667 2.38431 2.49131 2.09182 2.61953C1.89148 2.71168 1.55892 2.70367 1.40666 2.56344C1.31852 2.50734 1.27044 2.39916 1.27845 2.303C1.28646 2.20684 1.44273 1.84222 1.23438 1.66192C1.44273 1.73003 1.46276 1.70199 1.65108 1.58179C1.38663 1.89832 1.40666 1.91034 1.44273 2.10266C1.63505 2.03855 1.92353 2.06259 1.92353 2.14673C1.92353 2.23088 1.8434 2.37111 1.7272 2.31502C1.61501 2.25892 1.80734 2.19081 1.67111 2.19081C1.53889 2.19081 1.44273 2.21886 1.44273 2.31101C1.44273 2.40317 1.57495 2.52337 1.76727 2.52337C1.95959 2.52337 2.18798 2.42721 2.14791 2.07862C2.10784 1.73003 1.26643 1.3534 1.26643 1.117C1.26643 0.8766 1.32252 0.592122 1.87545 0.592122C2.23606 0.564075 2.28013 0.776432 2.41235 0.904648Z" fill="#FFE400"/>
<path d="M17.6905 8.63421C17.6905 6.72943 16.0612 5.1853 14.0513 5.1853C12.0414 5.1853 10.4121 6.72943 10.4121 8.63421C10.4121 10.539 12.0414 12.0831 14.0513 12.0831C16.0612 12.0831 17.6905 10.539 17.6905 8.63421Z" fill="#FFE400"/>
<path fill-rule="evenodd" clip-rule="evenodd" d="M13.8801 3.1283C13.8458 3.1283 13.6833 4.27437 13.6235 4.53095C13.5636 5.10827 14.3932 5.08688 14.2564 4.50957L13.8801 3.12402V3.1283ZM14.1709 14.2384C14.2008 14.2384 14.4488 13.1051 14.5301 12.8528C14.6284 12.284 13.7988 12.2541 13.8886 12.8357L14.1709 14.2384ZM8.37207 8.61063C8.37207 8.64056 9.56518 8.88004 9.83032 8.95702C10.429 9.05537 10.4718 8.27279 9.85598 8.35832L8.37207 8.6149V8.61063ZM19.991 8.74747C19.991 8.71754 18.7851 8.52082 18.5157 8.4524C17.9127 8.3797 17.9084 9.16228 18.5157 9.05537L19.991 8.74747ZM9.59512 4.9757C9.57373 4.99708 10.3606 5.88657 10.5188 6.10467C10.9293 6.5323 11.4725 5.93361 10.9293 5.64282L9.59512 4.97998V4.9757ZM18.6226 12.2883C18.644 12.2669 17.7801 11.4459 17.6005 11.2449C17.1515 10.8515 16.6683 11.4886 17.2327 11.7367L18.6226 12.2926V12.2883ZM11.3955 3.73555C11.3698 3.74838 11.7376 4.85168 11.7975 5.11254C12.0027 5.65564 12.7468 5.3007 12.3619 4.83458L11.3998 3.73555H11.3955ZM16.6597 13.6739C16.6896 13.661 16.4031 12.5364 16.3646 12.2755C16.1979 11.7196 15.4324 12.0189 15.7788 12.515L16.664 13.6696L16.6597 13.6739ZM17.9555 4.5053C17.9298 4.48391 16.9804 5.21518 16.7495 5.36057C16.2919 5.74545 16.912 6.26717 17.2285 5.75828L17.9555 4.5053ZM10.1297 12.7887C10.151 12.81 11.156 12.1472 11.3955 12.0146C11.8787 11.664 11.3014 11.0995 10.9465 11.587L10.1339 12.7887H10.1297ZM8.63293 6.62638C8.6201 6.65204 9.65926 7.25501 9.88591 7.41324C10.4205 7.69121 10.7326 6.96422 10.1211 6.84876L8.63293 6.62638ZM19.4821 10.8343C19.495 10.8087 18.4986 10.1373 18.2847 9.96624C17.7716 9.64979 17.4081 10.3554 18.011 10.5093L19.4821 10.8343ZM16.0354 3.44048C16.0054 3.43192 15.411 4.44115 15.2528 4.65925C15.2531 4.72889 15.2752 4.7967 15.3159 4.85316C15.3567 4.90962 15.4141 4.95189 15.4802 4.97406C15.5462 4.99623 15.6175 4.99717 15.6841 4.97675C15.7507 4.95634 15.8092 4.9156 15.8515 4.86024L16.0354 3.44048ZM12.0198 13.8877C12.0498 13.9005 12.7169 12.9298 12.8879 12.7202C13.2001 12.2242 12.4432 11.9077 12.3021 12.4808L12.0198 13.8877ZM8.70563 10.9242C8.71846 10.9498 9.90302 10.6676 10.181 10.6248C10.7626 10.4623 10.4376 9.74387 9.9244 10.0774L8.70563 10.9242ZM19.4864 6.5323C19.4778 6.50665 18.2762 6.70764 17.9982 6.73329C17.3995 6.85731 17.6775 7.59712 18.212 7.29778L19.4864 6.5323Z" fill="#FFE400"/>
<path fill-rule="evenodd" clip-rule="evenodd" d="M15.06 3.20105C15.0301 3.19678 14.6281 4.28726 14.5084 4.52673C14.333 5.08266 15.1498 5.21951 15.137 4.62937L15.0643 3.19678L15.06 3.20105ZM12.986 14.1443C13.0159 14.1529 13.4992 13.0881 13.636 12.8529C13.8498 12.314 13.0459 12.1259 13.0159 12.7117L12.9817 14.1443H12.986ZM12.5712 3.30796C12.5412 3.31652 12.6524 4.47114 12.6524 4.73628C12.7337 5.30504 13.5334 5.10832 13.2682 4.57805L12.5712 3.30796ZM15.4791 14.0802C15.5091 14.0759 15.4791 12.917 15.5005 12.6519C15.462 12.0746 14.6452 12.22 14.8761 12.7673L15.4748 14.0802H15.4791ZM10.51 4.26587C10.4843 4.28298 11.0531 5.30504 11.16 5.54879C11.4679 6.04913 12.1307 5.57873 11.6646 5.18102L10.51 4.26587ZM17.5574 13.1565C17.5831 13.1394 17.087 12.0788 17.0015 11.8308C16.7321 11.3134 16.0393 11.741 16.4712 12.1644L17.5574 13.1565ZM9.00467 5.70274C8.98756 5.7284 9.90699 6.4896 10.0994 6.68631C10.5741 7.04553 11.0146 6.37841 10.433 6.16887L9.00467 5.70274ZM19.02 11.6769C19.0371 11.6512 18.1775 10.8301 17.9979 10.6249C17.5532 10.2357 17.0657 10.8729 17.6301 11.1209L19.02 11.6769ZM8.3461 7.49455C8.33755 7.52448 9.47079 7.9564 9.71882 8.08041C10.2919 8.27285 10.4757 7.50738 9.85139 7.49027L8.3461 7.49455ZM19.7812 9.9663C19.794 9.94064 18.695 9.43603 18.4555 9.29491C17.8996 9.06398 17.6558 9.81663 18.2759 9.87649L19.7812 9.9663ZM8.30762 9.69689C8.31189 9.72254 9.53494 9.70544 9.8129 9.72682C10.4202 9.69689 10.2748 8.92286 9.69317 9.1324L8.30762 9.69689ZM19.8624 7.77251C19.8624 7.74258 18.6394 7.67843 18.3657 7.63994C17.7542 7.63139 17.844 8.41397 18.4384 8.23864L19.8624 7.76824V7.77251ZM9.35533 11.9805C9.37244 12.0061 10.4672 11.4844 10.7238 11.3861C11.254 11.1081 10.7665 10.4709 10.3432 10.9028L9.35533 11.9805ZM18.8617 5.46754C18.8446 5.44188 17.7199 5.8909 17.4505 5.97215C16.8989 6.21591 17.3393 6.88302 17.7926 6.48104L18.8617 5.46754ZM11.1343 13.4943C11.16 13.5071 11.9425 12.6177 12.1393 12.4295C12.5113 11.9719 11.7971 11.5742 11.5876 12.1302L11.1343 13.4943ZM17.1084 3.92376C17.087 3.90666 16.2403 4.74055 16.0308 4.91588C15.6288 5.3478 16.313 5.79254 16.561 5.25372L17.1041 3.92376H17.1084Z" fill="#FFE400"/>
<path fill-rule="evenodd" clip-rule="evenodd" d="M8.48749 10.9282C8.55282 11.1488 8.56215 12.3838 9.87807 13.5748C11.1847 14.7569 13.4245 15.0215 13.4245 15.0215C13.4245 15.0215 13.4339 15.1891 13.2752 15.198C13.1166 15.2156 12.3513 15.0656 11.9686 14.9509C11.5953 14.8451 11.2593 14.651 11.222 14.6598C11.1753 14.6775 11.1007 14.801 10.9887 14.7833C10.8767 14.7657 10.3354 14.2364 10.0927 14.0952C9.60739 13.6987 9.1777 13.2451 8.81414 12.7455C8.55282 12.3485 8.48749 12.0839 8.4035 12.0839C8.3195 12.0839 8.01152 12.278 8.01152 12.278C8.01152 12.278 7.73153 11.881 7.48888 11.2458C7.2369 10.6106 7.2649 10.2401 7.32089 10.2137C7.38622 10.1872 7.38622 10.6812 7.57288 11.1311C7.75953 11.5899 8.02085 11.731 8.02085 11.731C8.02085 11.731 7.85286 11.4928 7.7222 10.9018C7.59154 10.3107 7.53555 9.73729 7.62887 9.56085C7.7222 9.38442 7.8062 9.33149 7.81553 9.34031C7.83419 9.35795 7.65687 9.61378 7.7782 10.2931C7.89952 10.9723 8.22617 11.5457 8.30083 11.5193C8.3755 11.4928 8.25417 11.3517 8.20751 10.9547C8.16084 10.5577 8.25417 10.3107 8.35683 10.2754C8.4035 10.2401 8.47816 10.7165 8.48749 10.9282ZM7.57288 12.0574C7.32089 11.8369 6.92891 11.0694 6.84492 11.1047C6.75159 11.1488 7.47955 12.2515 7.49821 12.3397C7.51688 12.4456 7.67554 12.7455 7.55421 12.7014C7.43289 12.6573 6.56494 11.7928 6.6676 11.9604C6.77026 12.128 7.42355 12.8867 7.38622 12.9308C7.34889 12.9749 6.84492 12.5073 6.82625 12.5691C6.81692 12.622 7.32089 13.0807 7.31156 13.1337C7.30223 13.1866 6.98491 12.8425 6.98491 12.9131C6.98491 12.9837 7.31156 13.3277 7.31156 13.3807C7.31156 13.4336 7.03158 13.1337 7.1249 13.2925C7.2089 13.4689 7.45155 13.6189 7.44222 13.6718C7.43288 13.7247 7.2369 13.6012 7.2369 13.6277C7.2369 13.6541 7.60088 13.7777 7.68487 13.8747C7.7782 13.9717 8.3755 14.6245 8.82347 14.9509C9.27145 15.2774 10.5594 15.8508 10.6527 15.8508C10.7367 15.8508 10.8673 15.6743 10.8394 15.6038C10.8114 15.5332 9.55143 15.1274 9.20611 14.8274C8.85147 14.5275 7.99285 13.8041 7.91819 13.7688C7.85286 13.7247 7.65687 13.7424 7.65687 13.6983C7.65687 13.6541 7.90886 13.7247 7.89019 13.6983C7.88086 13.6718 7.54488 13.5306 7.55421 13.5042C7.57288 13.4777 7.78753 13.5571 7.78753 13.5306C7.78753 13.5042 7.39555 13.3013 7.41422 13.2572C7.42355 13.2131 7.70354 13.3807 7.70354 13.3454C7.70354 13.3277 7.33022 13.0807 7.33956 13.0366C7.34889 12.9925 7.62887 13.2307 7.61954 13.1778C7.61021 13.1248 7.39555 12.8249 7.39555 12.7896C7.39555 12.7455 7.73153 13.0896 7.76886 13.019C7.78753 12.9572 7.64754 12.3838 7.65687 12.375C7.66621 12.3662 7.90886 12.4985 7.94619 12.4191C7.99285 12.3309 7.7782 12.2162 7.57288 12.0574ZM11.8753 16.3977C11.698 16.4242 11.614 16.3624 11.7166 16.2213C11.8566 16.2213 12.2299 16.1066 12.3606 16.0537C12.4913 16.0007 12.6312 15.9302 12.7432 15.8331C12.8552 15.7184 12.9299 15.8949 12.8646 15.9919C12.8179 16.0537 12.6032 16.1683 12.4446 16.2301C12.2113 16.3007 12.0059 16.4065 11.8753 16.3977ZM13.0419 15.9478C12.9206 15.8243 13.0232 15.7361 13.2005 15.639C13.4619 15.5067 13.3872 15.3215 13.7232 15.1715C13.8725 15.0833 15.9631 14.2893 16.6443 13.8659C17.3256 13.4424 19.2389 12.0751 19.7522 11.1311C20.2561 10.196 20.0135 10.1254 20.0881 10.0902C20.1535 10.046 20.2281 10.2225 20.2188 10.4342C20.2001 10.6371 20.0321 11.2546 20.0881 11.3164C20.1441 11.3781 20.8534 10.8312 21.1521 10.1696C21.4507 9.50792 21.6747 8.81982 21.8147 8.81982C21.964 8.81982 21.5721 9.94901 21.3201 10.3901C21.0774 10.8312 20.7881 11.0517 20.8534 11.1488C20.9281 11.237 21.6561 10.6636 21.908 10.2401C22.1507 9.80786 22.384 9.42853 22.4307 9.50792C22.3564 10.0247 22.1409 10.5142 21.8054 10.9282C21.4134 11.3517 20.9468 11.6604 21.0214 11.7222C21.0868 11.7928 21.6187 11.8633 22.1694 11.5105C22.7293 11.1488 22.7853 10.6283 22.8506 10.6548C22.9253 10.6812 22.7853 11.3958 22.2534 11.8369C21.7214 12.278 21.0214 12.3221 21.0401 12.4191C21.0774 12.5073 22.5613 12.0133 22.5333 12.128C22.5053 12.2338 20.6108 12.9396 20.5921 13.0102C20.5921 13.0631 20.9188 13.0807 21.4321 12.9661C21.936 12.8602 22.4213 12.4809 22.4867 12.5691C22.5053 12.6926 22.1227 12.9925 21.5441 13.1337C20.9561 13.2748 20.6668 13.4601 20.6481 13.5042C20.6388 13.5483 21.6934 13.3807 21.6934 13.4336C21.6934 13.4865 20.3121 13.7424 20.3028 13.8129C20.2841 13.8747 21.6094 13.5571 21.5907 13.6365C21.5534 13.6983 19.7895 14.1923 19.8082 14.2187C19.8175 14.254 21.2827 13.9188 21.2547 13.9717C21.2174 14.0335 18.7909 14.6775 18.7722 14.7216C18.7536 14.7569 20.9188 14.2629 20.9001 14.307C20.8814 14.3511 19.7802 14.6069 19.7802 14.6334C19.7802 14.6598 20.6668 14.501 20.6481 14.5451C20.6388 14.5804 18.4082 15.1186 18.3616 15.198C18.3149 15.2862 19.5188 14.9774 19.5002 15.1362C19.4815 15.295 16.915 16.1066 16.9057 15.9566C16.887 15.8067 18.4642 15.4273 18.4549 15.3832C18.4362 15.3391 17.5496 15.4714 17.531 15.392C17.5216 15.3038 18.1189 15.1274 18.0723 15.0921C18.0256 15.048 17.5776 15.2156 17.615 15.1186C17.6616 15.0215 18.5109 14.651 18.4922 14.6245C18.4829 14.5981 18.1843 14.7128 18.2123 14.6245C18.2496 14.5275 20.0508 14.0335 20.0228 13.9717C19.9948 13.9188 19.1922 14.0952 19.1175 14.1129C19.0895 14.0599 20.2375 13.6541 20.2188 13.5836C20.1815 13.5218 19.6028 13.8218 19.5655 13.7424C19.5468 13.6541 20.5828 13.2748 20.5175 13.2131C20.4521 13.1513 19.9855 13.3719 19.9202 13.3101C19.8548 13.2483 20.9001 12.5691 20.7414 12.5514C20.5828 12.5426 20.3868 12.7632 20.3681 12.622C20.3868 12.4456 21.1801 12.1545 21.0028 12.0133C20.7228 11.9339 19.7802 12.0751 19.3882 12.2956C18.9962 12.5161 17.6896 13.7424 17.3723 13.9364C17.055 14.1217 15.9724 14.554 15.7671 14.6422C15.4497 14.748 15.3938 14.9068 15.0671 15.0656C14.4791 15.2156 14.4885 15.3832 14.2085 15.4803C14.1058 15.5067 13.0512 15.9831 13.0419 15.9478ZM11.5673 16.5653C11.39 16.6535 11.2313 16.8653 11.334 16.9535C11.39 17.0593 11.5673 16.7153 11.7073 16.7329L12.4539 16.7682C12.8552 16.7947 13.0512 16.6888 13.2752 16.7065C13.4992 16.7241 13.9938 16.5918 14.2272 16.5918C14.4605 16.5918 14.5071 16.6183 14.5258 16.5212C14.5538 16.433 13.7978 16.4948 13.4619 16.4859C13.1259 16.4683 12.7059 16.5477 12.4539 16.5477C12.2206 16.5389 11.8193 16.4683 11.5673 16.5653Z" fill="#FFE400"/>
<path d="M12.6869 16.4595C12.6869 16.3864 12.6159 16.3271 12.5283 16.3271C12.4407 16.3271 12.3696 16.3864 12.3696 16.4595C12.3696 16.5326 12.4407 16.5918 12.5283 16.5918C12.6159 16.5918 12.6869 16.5326 12.6869 16.4595Z" fill="#FFE400"/>
<path fill-rule="evenodd" clip-rule="evenodd" d="M16.4102 16.2037C16.5688 16.1772 16.9982 16.3184 17.2968 16.3801C17.8381 16.583 18.846 16.486 18.846 16.583C18.846 16.6801 18.7807 16.7948 18.5474 16.8124C18.3141 16.8301 17.7261 16.7242 17.7448 16.7242C17.7634 16.7242 18.2114 16.9271 18.0808 16.98C17.9501 17.033 17.5675 16.8653 17.5021 16.9094C17.4368 16.9536 17.8568 17.033 17.7821 17.0594C17.7261 17.0859 17.4368 17.0241 17.3435 17.033C17.2501 17.0506 17.4181 17.1476 17.3061 17.1829C17.1941 17.227 17.0075 17.13 16.9328 17.1565C16.8488 17.1829 17.1008 17.3329 16.9888 17.3505C16.8768 17.3682 16.6155 17.28 16.4662 17.2623C16.3169 17.2623 16.6062 17.4035 16.5128 17.4211C16.4195 17.4299 16.1582 17.3064 16.0929 17.3064C16.0275 17.3064 16.0929 17.4829 15.9995 17.4829C15.9062 17.4829 15.7942 17.3329 15.7382 17.3329C15.6822 17.3329 15.7382 17.5093 15.6449 17.5093C15.5516 17.5093 15.5142 17.3241 15.4396 17.3329C15.3462 17.3505 15.4396 17.5711 15.3089 17.5534C15.1876 17.5446 15.1689 17.3241 15.0663 17.3329C14.9729 17.3505 15.0849 17.5534 14.9916 17.5534C14.8983 17.5534 14.8796 17.3505 14.7863 17.3329C14.693 17.3241 14.7303 17.527 14.6743 17.527C14.6183 17.527 14.5623 17.3329 14.525 17.3329C14.497 17.3329 14.525 17.527 14.413 17.5093C14.301 17.4917 14.301 17.2976 14.273 17.3064C14.2356 17.3241 14.2356 17.4652 14.161 17.4652C14.0863 17.4652 14.077 17.3241 14.049 17.3417C14.0117 17.3505 13.8997 17.527 13.825 17.5005C13.741 17.474 13.8437 17.3329 13.8063 17.3329C13.769 17.3329 13.6757 17.4299 13.6197 17.4211C13.5637 17.4123 13.6197 17.2976 13.601 17.2976C13.5824 17.2976 13.4424 17.3682 13.377 17.3682C13.3117 17.3682 13.1344 17.4564 13.0877 17.377C13.041 17.2888 13.209 17.2888 13.2464 17.2094C13.2744 17.13 13.153 16.8918 13.2837 16.8124C13.405 16.7242 13.8063 16.9271 14.4036 16.7859C15.4862 16.5125 16.3262 16.1949 16.4102 16.2037Z" fill="#FFE400"/>
</g>
<defs>
<clipPath id="clip0_1940_2427">
<rect width="25.6431" height="19.2323" fill="white" transform="translate(0 0.383789)"/>
</clipPath>
</defs>
</svg>
