<svg width="360" height="92" viewBox="0 0 360 92" fill="none" xmlns="http://www.w3.org/2000/svg">
<path fill-rule="evenodd" clip-rule="evenodd" d="M82.8267 31.8518C82.8267 27.5154 86.342 24 90.6784 24H98.7924C103.129 24 106.644 27.5154 106.644 31.8518V42.2566C106.644 43.4392 105.685 44.3979 104.503 44.3979C103.32 44.3979 102.361 43.4392 102.361 42.2566V31.8518C102.361 29.8807 100.764 28.2828 98.7924 28.2828H92.5019C90.5308 28.2828 88.933 29.8807 88.933 31.8518V40.8678C88.933 41.8144 89.309 42.7222 89.9784 43.3915L104.344 59.58C105.817 61.0525 106.644 63.0497 106.644 65.1322V74.1482C106.644 78.4846 103.129 82 98.7924 82H90.6784C86.342 82 82.8267 78.4846 82.8267 74.1482V63.7434C82.8267 62.5608 83.7854 61.6021 84.968 61.6021C86.1507 61.6021 87.1094 62.5608 87.1094 63.7434V74.1482C87.1094 76.1193 88.7073 77.7172 90.6784 77.7172H95.714C97.6851 77.7172 99.283 76.1193 99.283 74.1482V65.1322C99.283 64.1856 98.9069 63.2778 98.2376 62.6085L85.1266 46.42C83.654 44.9475 82.8267 42.9503 82.8267 40.8678V31.8518ZM66.0913 48.9828C66.0913 44.6464 69.6067 41.1311 73.9431 41.1311H79.6534C80.8361 41.1311 81.7948 42.0898 81.7948 43.2725C81.7948 44.4551 80.8361 45.4139 79.6534 45.4139H73.9431C71.972 45.4139 70.3741 47.0118 70.3741 48.9828V56.8346C70.3741 58.8057 71.972 60.4036 73.9431 60.4036H79.6534C80.8361 60.4036 81.7948 61.3623 81.7948 62.545C81.7948 63.7276 80.8361 64.6864 79.6534 64.6864H73.9431C69.6067 64.6864 66.0913 61.171 66.0913 56.8346V48.9828ZM110.347 41.1311C109.164 41.1311 108.206 42.0898 108.206 43.2725C108.206 44.4551 109.164 45.4139 110.347 45.4139H116.057C118.028 45.4139 119.626 47.0118 119.626 48.9828V56.8346C119.626 58.8057 118.028 60.4036 116.057 60.4036H110.347C109.164 60.4036 108.206 61.3623 108.206 62.545C108.206 63.7276 109.164 64.6864 110.347 64.6864H116.057C120.394 64.6864 123.909 61.171 123.909 56.8346V48.9828C123.909 44.6464 120.394 41.1311 116.057 41.1311H110.347Z" fill="white"/>
<path d="M150.19 57.1406C150.19 56.6719 150.118 56.2552 149.972 55.8906C149.836 55.526 149.591 55.1927 149.237 54.8906C148.883 54.5885 148.383 54.2969 147.737 54.0156C147.102 53.724 146.289 53.4271 145.3 53.125C144.216 52.7917 143.216 52.4219 142.3 52.0156C141.394 51.599 140.602 51.1198 139.925 50.5781C139.248 50.026 138.722 49.3958 138.347 48.6875C137.972 47.9688 137.784 47.1406 137.784 46.2031C137.784 45.276 137.977 44.4323 138.362 43.6719C138.758 42.9115 139.315 42.2552 140.034 41.7031C140.763 41.1406 141.623 40.7083 142.612 40.4062C143.602 40.0938 144.696 39.9375 145.894 39.9375C147.581 39.9375 149.034 40.25 150.253 40.875C151.482 41.5 152.425 42.3385 153.081 43.3906C153.748 44.4427 154.081 45.6042 154.081 46.875H150.19C150.19 46.125 150.029 45.4635 149.706 44.8906C149.394 44.3073 148.914 43.849 148.269 43.5156C147.633 43.1823 146.826 43.0156 145.847 43.0156C144.92 43.0156 144.149 43.1562 143.534 43.4375C142.92 43.7188 142.461 44.099 142.159 44.5781C141.857 45.0573 141.706 45.599 141.706 46.2031C141.706 46.6302 141.805 47.0208 142.003 47.375C142.201 47.7188 142.503 48.0417 142.909 48.3438C143.315 48.6354 143.826 48.9115 144.44 49.1719C145.055 49.4323 145.779 49.6823 146.612 49.9219C147.873 50.2969 148.972 50.7135 149.909 51.1719C150.847 51.6198 151.628 52.1302 152.253 52.7031C152.878 53.276 153.347 53.9271 153.659 54.6562C153.972 55.375 154.128 56.1927 154.128 57.1094C154.128 58.0677 153.935 58.9323 153.55 59.7031C153.164 60.4635 152.612 61.1146 151.894 61.6562C151.185 62.1875 150.331 62.599 149.331 62.8906C148.341 63.1719 147.237 63.3125 146.019 63.3125C144.925 63.3125 143.847 63.1667 142.784 62.875C141.732 62.5833 140.774 62.1406 139.909 61.5469C139.045 60.9427 138.357 60.1927 137.847 59.2969C137.336 58.3906 137.081 57.3333 137.081 56.125H141.003C141.003 56.8646 141.128 57.4948 141.378 58.0156C141.638 58.5365 141.998 58.9635 142.456 59.2969C142.914 59.6198 143.446 59.8594 144.05 60.0156C144.664 60.1719 145.321 60.25 146.019 60.25C146.935 60.25 147.701 60.1198 148.315 59.8594C148.94 59.599 149.409 59.2344 149.722 58.7656C150.034 58.2969 150.19 57.7552 150.19 57.1406ZM160.987 49.5312V63H157.222V46.0938H160.769L160.987 49.5312ZM160.378 53.9219L159.097 53.9062C159.097 52.7396 159.243 51.6615 159.534 50.6719C159.826 49.6823 160.253 48.8229 160.815 48.0938C161.378 47.3542 162.076 46.7865 162.909 46.3906C163.753 45.9844 164.727 45.7812 165.831 45.7812C166.602 45.7812 167.305 45.8958 167.94 46.125C168.586 46.3438 169.144 46.6927 169.612 47.1719C170.091 47.651 170.456 48.2656 170.706 49.0156C170.966 49.7656 171.097 50.6719 171.097 51.7344V63H167.331V52.0625C167.331 51.2396 167.206 50.5938 166.956 50.125C166.716 49.6562 166.368 49.3229 165.909 49.125C165.461 48.9167 164.925 48.8125 164.3 48.8125C163.591 48.8125 162.987 48.9479 162.487 49.2188C161.998 49.4896 161.597 49.8594 161.284 50.3281C160.972 50.7969 160.743 51.3385 160.597 51.9531C160.451 52.5677 160.378 53.224 160.378 53.9219ZM170.862 52.9219L169.097 53.3125C169.097 52.2917 169.237 51.3281 169.519 50.4219C169.81 49.5052 170.232 48.7031 170.784 48.0156C171.347 47.3177 172.039 46.7708 172.862 46.375C173.685 45.9792 174.628 45.7812 175.69 45.7812C176.555 45.7812 177.326 45.901 178.003 46.1406C178.69 46.3698 179.274 46.7344 179.753 47.2344C180.232 47.7344 180.597 48.3854 180.847 49.1875C181.097 49.9792 181.222 50.9375 181.222 52.0625V63H177.44V52.0469C177.44 51.1927 177.315 50.5312 177.065 50.0625C176.826 49.5938 176.482 49.2708 176.034 49.0938C175.586 48.9062 175.05 48.8125 174.425 48.8125C173.841 48.8125 173.326 48.9219 172.878 49.1406C172.44 49.349 172.071 49.6458 171.769 50.0312C171.466 50.4062 171.237 50.8385 171.081 51.3281C170.935 51.8177 170.862 52.349 170.862 52.9219ZM194.628 59.6094V51.5469C194.628 50.9427 194.519 50.4219 194.3 49.9844C194.081 49.5469 193.748 49.2083 193.3 48.9688C192.862 48.7292 192.31 48.6094 191.644 48.6094C191.029 48.6094 190.498 48.7135 190.05 48.9219C189.602 49.1302 189.253 49.4115 189.003 49.7656C188.753 50.1198 188.628 50.5208 188.628 50.9688H184.878C184.878 50.3021 185.039 49.6562 185.362 49.0312C185.685 48.4062 186.154 47.849 186.769 47.3594C187.383 46.8698 188.118 46.4844 188.972 46.2031C189.826 45.9219 190.784 45.7812 191.847 45.7812C193.118 45.7812 194.243 45.9948 195.222 46.4219C196.211 46.849 196.987 47.4948 197.55 48.3594C198.123 49.2135 198.409 50.2865 198.409 51.5781V59.0938C198.409 59.8646 198.461 60.5573 198.565 61.1719C198.68 61.776 198.841 62.3021 199.05 62.75V63H195.19C195.013 62.5938 194.873 62.0781 194.769 61.4531C194.675 60.8177 194.628 60.2031 194.628 59.6094ZM195.175 52.7188L195.206 55.0469H192.503C191.805 55.0469 191.19 55.1146 190.659 55.25C190.128 55.375 189.685 55.5625 189.331 55.8125C188.977 56.0625 188.711 56.3646 188.534 56.7188C188.357 57.0729 188.269 57.474 188.269 57.9219C188.269 58.3698 188.373 58.7812 188.581 59.1562C188.789 59.5208 189.091 59.8073 189.487 60.0156C189.894 60.224 190.383 60.3281 190.956 60.3281C191.727 60.3281 192.399 60.1719 192.972 59.8594C193.555 59.5365 194.013 59.1458 194.347 58.6875C194.68 58.2188 194.857 57.776 194.878 57.3594L196.097 59.0312C195.972 59.4583 195.758 59.9167 195.456 60.4062C195.154 60.8958 194.758 61.3646 194.269 61.8125C193.789 62.25 193.211 62.6094 192.534 62.8906C191.868 63.1719 191.097 63.3125 190.222 63.3125C189.118 63.3125 188.133 63.0938 187.269 62.6562C186.404 62.2083 185.727 61.6094 185.237 60.8594C184.748 60.099 184.503 59.2396 184.503 58.2812C184.503 57.3854 184.67 56.5938 185.003 55.9062C185.347 55.2083 185.847 54.625 186.503 54.1562C187.17 53.6875 187.982 53.3333 188.94 53.0938C189.899 52.8438 190.993 52.7188 192.222 52.7188H195.175ZM206.128 49.3125V63H202.362V46.0938H205.956L206.128 49.3125ZM211.3 45.9844L211.269 49.4844C211.039 49.4427 210.789 49.4115 210.519 49.3906C210.258 49.3698 209.998 49.3594 209.737 49.3594C209.091 49.3594 208.524 49.4531 208.034 49.6406C207.545 49.8177 207.133 50.0781 206.8 50.4219C206.477 50.7552 206.227 51.1615 206.05 51.6406C205.873 52.1198 205.769 52.6562 205.737 53.25L204.878 53.3125C204.878 52.25 204.982 51.2656 205.19 50.3594C205.399 49.4531 205.711 48.6562 206.128 47.9688C206.555 47.2812 207.086 46.7448 207.722 46.3594C208.368 45.974 209.112 45.7812 209.956 45.7812C210.185 45.7812 210.43 45.8021 210.69 45.8438C210.961 45.8854 211.164 45.9323 211.3 45.9844ZM222.19 46.0938V48.8438H212.659V46.0938H222.19ZM215.409 41.9531H219.175V58.3281C219.175 58.849 219.248 59.25 219.394 59.5312C219.55 59.8021 219.763 59.9844 220.034 60.0781C220.305 60.1719 220.623 60.2188 220.987 60.2188C221.248 60.2188 221.498 60.2031 221.737 60.1719C221.977 60.1406 222.17 60.1094 222.315 60.0781L222.331 62.9531C222.019 63.0469 221.654 63.1302 221.237 63.2031C220.831 63.276 220.362 63.3125 219.831 63.3125C218.966 63.3125 218.201 63.1615 217.534 62.8594C216.868 62.5469 216.347 62.0417 215.972 61.3438C215.597 60.6458 215.409 59.7188 215.409 58.5625V41.9531ZM235.159 40.1719V63H231.394V44.6406L225.815 46.5312V43.4219L234.706 40.1719H235.159ZM257.894 49.7188V53.4375C257.894 55.2188 257.716 56.7396 257.362 58C257.019 59.25 256.519 60.2656 255.862 61.0469C255.206 61.8281 254.42 62.401 253.503 62.7656C252.597 63.1302 251.581 63.3125 250.456 63.3125C249.56 63.3125 248.727 63.1979 247.956 62.9688C247.196 62.7396 246.508 62.3802 245.894 61.8906C245.279 61.401 244.753 60.7708 244.315 60C243.888 59.2188 243.555 58.2865 243.315 57.2031C243.086 56.1198 242.972 54.8646 242.972 53.4375V49.7188C242.972 47.9271 243.149 46.4167 243.503 45.1875C243.857 43.9479 244.362 42.9427 245.019 42.1719C245.675 41.3906 246.456 40.8229 247.362 40.4688C248.279 40.1146 249.3 39.9375 250.425 39.9375C251.331 39.9375 252.164 40.0521 252.925 40.2812C253.696 40.5 254.383 40.849 254.987 41.3281C255.602 41.8073 256.123 42.4323 256.55 43.2031C256.987 43.9635 257.321 44.8854 257.55 45.9688C257.779 47.0417 257.894 48.2917 257.894 49.7188ZM254.128 53.9688V49.1562C254.128 48.25 254.076 47.4531 253.972 46.7656C253.868 46.0677 253.711 45.4792 253.503 45C253.305 44.5104 253.055 44.1146 252.753 43.8125C252.451 43.5 252.107 43.276 251.722 43.1406C251.336 42.9948 250.904 42.9219 250.425 42.9219C249.841 42.9219 249.321 43.0365 248.862 43.2656C248.404 43.4844 248.019 43.8385 247.706 44.3281C247.394 44.8177 247.154 45.4635 246.987 46.2656C246.831 47.0573 246.753 48.0208 246.753 49.1562V53.9688C246.753 54.8854 246.805 55.6927 246.909 56.3906C247.013 57.0885 247.17 57.6875 247.378 58.1875C247.586 58.6771 247.836 59.0833 248.128 59.4062C248.43 59.7188 248.774 59.9479 249.159 60.0938C249.555 60.2396 249.987 60.3125 250.456 60.3125C251.05 60.3125 251.576 60.1979 252.034 59.9688C252.493 59.7396 252.878 59.375 253.19 58.875C253.503 58.3646 253.737 57.7031 253.894 56.8906C254.05 56.0781 254.128 55.1042 254.128 53.9688ZM265.675 49.9219H267.925C268.8 49.9219 269.524 49.7708 270.097 49.4688C270.68 49.1667 271.112 48.75 271.394 48.2188C271.675 47.6875 271.815 47.0781 271.815 46.3906C271.815 45.6719 271.685 45.0573 271.425 44.5469C271.175 44.026 270.789 43.625 270.269 43.3438C269.758 43.0625 269.107 42.9219 268.315 42.9219C267.649 42.9219 267.045 43.0573 266.503 43.3281C265.972 43.5885 265.55 43.9635 265.237 44.4531C264.925 44.9323 264.769 45.5052 264.769 46.1719H260.987C260.987 44.9635 261.305 43.8906 261.94 42.9531C262.576 42.0156 263.44 41.2812 264.534 40.75C265.638 40.2083 266.878 39.9375 268.253 39.9375C269.722 39.9375 271.003 40.1823 272.097 40.6719C273.201 41.151 274.06 41.8698 274.675 42.8281C275.289 43.7865 275.597 44.974 275.597 46.3906C275.597 47.0365 275.446 47.6927 275.144 48.3594C274.841 49.026 274.394 49.6354 273.8 50.1875C273.206 50.7292 272.466 51.1719 271.581 51.5156C270.696 51.849 269.67 52.0156 268.503 52.0156H265.675V49.9219ZM265.675 52.8594V50.7969H268.503C269.836 50.7969 270.972 50.9531 271.909 51.2656C272.857 51.5781 273.628 52.0104 274.222 52.5625C274.815 53.1042 275.248 53.724 275.519 54.4219C275.8 55.1198 275.94 55.8594 275.94 56.6406C275.94 57.7031 275.748 58.651 275.362 59.4844C274.987 60.3073 274.451 61.0052 273.753 61.5781C273.055 62.151 272.237 62.5833 271.3 62.875C270.373 63.1667 269.362 63.3125 268.269 63.3125C267.289 63.3125 266.352 63.1771 265.456 62.9062C264.56 62.6354 263.758 62.2344 263.05 61.7031C262.341 61.1615 261.779 60.4896 261.362 59.6875C260.956 58.875 260.753 57.9375 260.753 56.875H264.519C264.519 57.5521 264.675 58.151 264.987 58.6719C265.31 59.1823 265.758 59.5833 266.331 59.875C266.914 60.1667 267.581 60.3125 268.331 60.3125C269.123 60.3125 269.805 60.1719 270.378 59.8906C270.951 59.6094 271.388 59.1927 271.69 58.6406C272.003 58.0885 272.159 57.4219 272.159 56.6406C272.159 55.7552 271.987 55.0365 271.644 54.4844C271.3 53.9323 270.81 53.526 270.175 53.2656C269.539 52.9948 268.789 52.8594 267.925 52.8594H265.675Z" fill="white"/>
</svg>
