<svg width="360" height="317" viewBox="0 0 360 317" fill="none" xmlns="http://www.w3.org/2000/svg">
<rect width="360" height="317" fill="#4F8B89"/>
<path fill-rule="evenodd" clip-rule="evenodd" d="M82.8267 31.8518C82.8267 27.5154 86.342 24 90.6784 24H98.7924C103.129 24 106.644 27.5154 106.644 31.8518V42.2566C106.644 43.4392 105.685 44.3979 104.503 44.3979C103.32 44.3979 102.361 43.4392 102.361 42.2566V31.8518C102.361 29.8807 100.764 28.2828 98.7924 28.2828H92.5019C90.5308 28.2828 88.933 29.8807 88.933 31.8518V40.8678C88.933 41.8144 89.309 42.7222 89.9784 43.3915L104.344 59.58C105.817 61.0525 106.644 63.0497 106.644 65.1322V74.1482C106.644 78.4846 103.129 82 98.7924 82H90.6784C86.342 82 82.8267 78.4846 82.8267 74.1482V63.7434C82.8267 62.5608 83.7854 61.6021 84.968 61.6021C86.1507 61.6021 87.1094 62.5608 87.1094 63.7434V74.1482C87.1094 76.1193 88.7073 77.7172 90.6784 77.7172H95.714C97.6851 77.7172 99.283 76.1193 99.283 74.1482V65.1322C99.283 64.1856 98.9069 63.2778 98.2376 62.6085L85.1266 46.42C83.654 44.9475 82.8267 42.9503 82.8267 40.8678V31.8518ZM66.0913 48.9828C66.0913 44.6464 69.6067 41.1311 73.9431 41.1311H79.6534C80.8361 41.1311 81.7948 42.0898 81.7948 43.2725C81.7948 44.4551 80.8361 45.4139 79.6534 45.4139H73.9431C71.972 45.4139 70.3741 47.0118 70.3741 48.9828V56.8346C70.3741 58.8057 71.972 60.4036 73.9431 60.4036H79.6534C80.8361 60.4036 81.7948 61.3623 81.7948 62.545C81.7948 63.7276 80.8361 64.6864 79.6534 64.6864H73.9431C69.6067 64.6864 66.0913 61.171 66.0913 56.8346V48.9828ZM110.347 41.1311C109.164 41.1311 108.206 42.0898 108.206 43.2725C108.206 44.4551 109.164 45.4139 110.347 45.4139H116.057C118.028 45.4139 119.626 47.0118 119.626 48.9828V56.8346C119.626 58.8057 118.028 60.4036 116.057 60.4036H110.347C109.164 60.4036 108.206 61.3623 108.206 62.545C108.206 63.7276 109.164 64.6864 110.347 64.6864H116.057C120.394 64.6864 123.909 61.171 123.909 56.8346V48.9828C123.909 44.6464 120.394 41.1311 116.057 41.1311H110.347Z" fill="white"/>
<path d="M150.19 57.1406C150.19 56.6719 150.118 56.2552 149.972 55.8906C149.836 55.526 149.591 55.1927 149.237 54.8906C148.883 54.5885 148.383 54.2969 147.737 54.0156C147.102 53.724 146.289 53.4271 145.3 53.125C144.216 52.7917 143.216 52.4219 142.3 52.0156C141.394 51.599 140.602 51.1198 139.925 50.5781C139.248 50.026 138.722 49.3958 138.347 48.6875C137.972 47.9688 137.784 47.1406 137.784 46.2031C137.784 45.276 137.977 44.4323 138.362 43.6719C138.758 42.9115 139.315 42.2552 140.034 41.7031C140.763 41.1406 141.623 40.7083 142.612 40.4062C143.602 40.0938 144.696 39.9375 145.894 39.9375C147.581 39.9375 149.034 40.25 150.253 40.875C151.482 41.5 152.425 42.3385 153.081 43.3906C153.748 44.4427 154.081 45.6042 154.081 46.875H150.19C150.19 46.125 150.029 45.4635 149.706 44.8906C149.394 44.3073 148.914 43.849 148.269 43.5156C147.633 43.1823 146.826 43.0156 145.847 43.0156C144.92 43.0156 144.149 43.1562 143.534 43.4375C142.92 43.7188 142.461 44.099 142.159 44.5781C141.857 45.0573 141.706 45.599 141.706 46.2031C141.706 46.6302 141.805 47.0208 142.003 47.375C142.201 47.7188 142.503 48.0417 142.909 48.3438C143.315 48.6354 143.826 48.9115 144.44 49.1719C145.055 49.4323 145.779 49.6823 146.612 49.9219C147.873 50.2969 148.972 50.7135 149.909 51.1719C150.847 51.6198 151.628 52.1302 152.253 52.7031C152.878 53.276 153.347 53.9271 153.659 54.6562C153.972 55.375 154.128 56.1927 154.128 57.1094C154.128 58.0677 153.935 58.9323 153.55 59.7031C153.164 60.4635 152.612 61.1146 151.894 61.6562C151.185 62.1875 150.331 62.599 149.331 62.8906C148.341 63.1719 147.237 63.3125 146.019 63.3125C144.925 63.3125 143.847 63.1667 142.784 62.875C141.732 62.5833 140.774 62.1406 139.909 61.5469C139.045 60.9427 138.357 60.1927 137.847 59.2969C137.336 58.3906 137.081 57.3333 137.081 56.125H141.003C141.003 56.8646 141.128 57.4948 141.378 58.0156C141.638 58.5365 141.998 58.9635 142.456 59.2969C142.914 59.6198 143.446 59.8594 144.05 60.0156C144.664 60.1719 145.321 60.25 146.019 60.25C146.935 60.25 147.701 60.1198 148.315 59.8594C148.94 59.599 149.409 59.2344 149.722 58.7656C150.034 58.2969 150.19 57.7552 150.19 57.1406ZM160.987 49.5312V63H157.222V46.0938H160.769L160.987 49.5312ZM160.378 53.9219L159.097 53.9062C159.097 52.7396 159.243 51.6615 159.534 50.6719C159.826 49.6823 160.253 48.8229 160.815 48.0938C161.378 47.3542 162.076 46.7865 162.909 46.3906C163.753 45.9844 164.727 45.7812 165.831 45.7812C166.602 45.7812 167.305 45.8958 167.94 46.125C168.586 46.3438 169.144 46.6927 169.612 47.1719C170.091 47.651 170.456 48.2656 170.706 49.0156C170.966 49.7656 171.097 50.6719 171.097 51.7344V63H167.331V52.0625C167.331 51.2396 167.206 50.5938 166.956 50.125C166.716 49.6562 166.368 49.3229 165.909 49.125C165.461 48.9167 164.925 48.8125 164.3 48.8125C163.591 48.8125 162.987 48.9479 162.487 49.2188C161.998 49.4896 161.597 49.8594 161.284 50.3281C160.972 50.7969 160.743 51.3385 160.597 51.9531C160.451 52.5677 160.378 53.224 160.378 53.9219ZM170.862 52.9219L169.097 53.3125C169.097 52.2917 169.237 51.3281 169.519 50.4219C169.81 49.5052 170.232 48.7031 170.784 48.0156C171.347 47.3177 172.039 46.7708 172.862 46.375C173.685 45.9792 174.628 45.7812 175.69 45.7812C176.555 45.7812 177.326 45.901 178.003 46.1406C178.69 46.3698 179.274 46.7344 179.753 47.2344C180.232 47.7344 180.597 48.3854 180.847 49.1875C181.097 49.9792 181.222 50.9375 181.222 52.0625V63H177.44V52.0469C177.44 51.1927 177.315 50.5312 177.065 50.0625C176.826 49.5938 176.482 49.2708 176.034 49.0938C175.586 48.9062 175.05 48.8125 174.425 48.8125C173.841 48.8125 173.326 48.9219 172.878 49.1406C172.44 49.349 172.071 49.6458 171.769 50.0312C171.466 50.4062 171.237 50.8385 171.081 51.3281C170.935 51.8177 170.862 52.349 170.862 52.9219ZM194.628 59.6094V51.5469C194.628 50.9427 194.519 50.4219 194.3 49.9844C194.081 49.5469 193.748 49.2083 193.3 48.9688C192.862 48.7292 192.31 48.6094 191.644 48.6094C191.029 48.6094 190.498 48.7135 190.05 48.9219C189.602 49.1302 189.253 49.4115 189.003 49.7656C188.753 50.1198 188.628 50.5208 188.628 50.9688H184.878C184.878 50.3021 185.039 49.6562 185.362 49.0312C185.685 48.4062 186.154 47.849 186.769 47.3594C187.383 46.8698 188.118 46.4844 188.972 46.2031C189.826 45.9219 190.784 45.7812 191.847 45.7812C193.118 45.7812 194.243 45.9948 195.222 46.4219C196.211 46.849 196.987 47.4948 197.55 48.3594C198.123 49.2135 198.409 50.2865 198.409 51.5781V59.0938C198.409 59.8646 198.461 60.5573 198.565 61.1719C198.68 61.776 198.841 62.3021 199.05 62.75V63H195.19C195.013 62.5938 194.873 62.0781 194.769 61.4531C194.675 60.8177 194.628 60.2031 194.628 59.6094ZM195.175 52.7188L195.206 55.0469H192.503C191.805 55.0469 191.19 55.1146 190.659 55.25C190.128 55.375 189.685 55.5625 189.331 55.8125C188.977 56.0625 188.711 56.3646 188.534 56.7188C188.357 57.0729 188.269 57.474 188.269 57.9219C188.269 58.3698 188.373 58.7812 188.581 59.1562C188.789 59.5208 189.091 59.8073 189.487 60.0156C189.894 60.224 190.383 60.3281 190.956 60.3281C191.727 60.3281 192.399 60.1719 192.972 59.8594C193.555 59.5365 194.013 59.1458 194.347 58.6875C194.68 58.2188 194.857 57.776 194.878 57.3594L196.097 59.0312C195.972 59.4583 195.758 59.9167 195.456 60.4062C195.154 60.8958 194.758 61.3646 194.269 61.8125C193.789 62.25 193.211 62.6094 192.534 62.8906C191.868 63.1719 191.097 63.3125 190.222 63.3125C189.118 63.3125 188.133 63.0938 187.269 62.6562C186.404 62.2083 185.727 61.6094 185.237 60.8594C184.748 60.099 184.503 59.2396 184.503 58.2812C184.503 57.3854 184.67 56.5938 185.003 55.9062C185.347 55.2083 185.847 54.625 186.503 54.1562C187.17 53.6875 187.982 53.3333 188.94 53.0938C189.899 52.8438 190.993 52.7188 192.222 52.7188H195.175ZM206.128 49.3125V63H202.362V46.0938H205.956L206.128 49.3125ZM211.3 45.9844L211.269 49.4844C211.039 49.4427 210.789 49.4115 210.519 49.3906C210.258 49.3698 209.998 49.3594 209.737 49.3594C209.091 49.3594 208.524 49.4531 208.034 49.6406C207.545 49.8177 207.133 50.0781 206.8 50.4219C206.477 50.7552 206.227 51.1615 206.05 51.6406C205.873 52.1198 205.769 52.6562 205.737 53.25L204.878 53.3125C204.878 52.25 204.982 51.2656 205.19 50.3594C205.399 49.4531 205.711 48.6562 206.128 47.9688C206.555 47.2812 207.086 46.7448 207.722 46.3594C208.368 45.974 209.112 45.7812 209.956 45.7812C210.185 45.7812 210.43 45.8021 210.69 45.8438C210.961 45.8854 211.164 45.9323 211.3 45.9844ZM222.19 46.0938V48.8438H212.659V46.0938H222.19ZM215.409 41.9531H219.175V58.3281C219.175 58.849 219.248 59.25 219.394 59.5312C219.55 59.8021 219.763 59.9844 220.034 60.0781C220.305 60.1719 220.623 60.2188 220.987 60.2188C221.248 60.2188 221.498 60.2031 221.737 60.1719C221.977 60.1406 222.17 60.1094 222.315 60.0781L222.331 62.9531C222.019 63.0469 221.654 63.1302 221.237 63.2031C220.831 63.276 220.362 63.3125 219.831 63.3125C218.966 63.3125 218.201 63.1615 217.534 62.8594C216.868 62.5469 216.347 62.0417 215.972 61.3438C215.597 60.6458 215.409 59.7188 215.409 58.5625V41.9531ZM235.159 40.1719V63H231.394V44.6406L225.815 46.5312V43.4219L234.706 40.1719H235.159ZM257.894 49.7188V53.4375C257.894 55.2188 257.716 56.7396 257.362 58C257.019 59.25 256.519 60.2656 255.862 61.0469C255.206 61.8281 254.42 62.401 253.503 62.7656C252.597 63.1302 251.581 63.3125 250.456 63.3125C249.56 63.3125 248.727 63.1979 247.956 62.9688C247.196 62.7396 246.508 62.3802 245.894 61.8906C245.279 61.401 244.753 60.7708 244.315 60C243.888 59.2188 243.555 58.2865 243.315 57.2031C243.086 56.1198 242.972 54.8646 242.972 53.4375V49.7188C242.972 47.9271 243.149 46.4167 243.503 45.1875C243.857 43.9479 244.362 42.9427 245.019 42.1719C245.675 41.3906 246.456 40.8229 247.362 40.4688C248.279 40.1146 249.3 39.9375 250.425 39.9375C251.331 39.9375 252.164 40.0521 252.925 40.2812C253.696 40.5 254.383 40.849 254.987 41.3281C255.602 41.8073 256.123 42.4323 256.55 43.2031C256.987 43.9635 257.321 44.8854 257.55 45.9688C257.779 47.0417 257.894 48.2917 257.894 49.7188ZM254.128 53.9688V49.1562C254.128 48.25 254.076 47.4531 253.972 46.7656C253.868 46.0677 253.711 45.4792 253.503 45C253.305 44.5104 253.055 44.1146 252.753 43.8125C252.451 43.5 252.107 43.276 251.722 43.1406C251.336 42.9948 250.904 42.9219 250.425 42.9219C249.841 42.9219 249.321 43.0365 248.862 43.2656C248.404 43.4844 248.019 43.8385 247.706 44.3281C247.394 44.8177 247.154 45.4635 246.987 46.2656C246.831 47.0573 246.753 48.0208 246.753 49.1562V53.9688C246.753 54.8854 246.805 55.6927 246.909 56.3906C247.013 57.0885 247.17 57.6875 247.378 58.1875C247.586 58.6771 247.836 59.0833 248.128 59.4062C248.43 59.7188 248.774 59.9479 249.159 60.0938C249.555 60.2396 249.987 60.3125 250.456 60.3125C251.05 60.3125 251.576 60.1979 252.034 59.9688C252.493 59.7396 252.878 59.375 253.19 58.875C253.503 58.3646 253.737 57.7031 253.894 56.8906C254.05 56.0781 254.128 55.1042 254.128 53.9688ZM265.675 49.9219H267.925C268.8 49.9219 269.524 49.7708 270.097 49.4688C270.68 49.1667 271.112 48.75 271.394 48.2188C271.675 47.6875 271.815 47.0781 271.815 46.3906C271.815 45.6719 271.685 45.0573 271.425 44.5469C271.175 44.026 270.789 43.625 270.269 43.3438C269.758 43.0625 269.107 42.9219 268.315 42.9219C267.649 42.9219 267.045 43.0573 266.503 43.3281C265.972 43.5885 265.55 43.9635 265.237 44.4531C264.925 44.9323 264.769 45.5052 264.769 46.1719H260.987C260.987 44.9635 261.305 43.8906 261.94 42.9531C262.576 42.0156 263.44 41.2812 264.534 40.75C265.638 40.2083 266.878 39.9375 268.253 39.9375C269.722 39.9375 271.003 40.1823 272.097 40.6719C273.201 41.151 274.06 41.8698 274.675 42.8281C275.289 43.7865 275.597 44.974 275.597 46.3906C275.597 47.0365 275.446 47.6927 275.144 48.3594C274.841 49.026 274.394 49.6354 273.8 50.1875C273.206 50.7292 272.466 51.1719 271.581 51.5156C270.696 51.849 269.67 52.0156 268.503 52.0156H265.675V49.9219ZM265.675 52.8594V50.7969H268.503C269.836 50.7969 270.972 50.9531 271.909 51.2656C272.857 51.5781 273.628 52.0104 274.222 52.5625C274.815 53.1042 275.248 53.724 275.519 54.4219C275.8 55.1198 275.94 55.8594 275.94 56.6406C275.94 57.7031 275.748 58.651 275.362 59.4844C274.987 60.3073 274.451 61.0052 273.753 61.5781C273.055 62.151 272.237 62.5833 271.3 62.875C270.373 63.1667 269.362 63.3125 268.269 63.3125C267.289 63.3125 266.352 63.1771 265.456 62.9062C264.56 62.6354 263.758 62.2344 263.05 61.7031C262.341 61.1615 261.779 60.4896 261.362 59.6875C260.956 58.875 260.753 57.9375 260.753 56.875H264.519C264.519 57.5521 264.675 58.151 264.987 58.6719C265.31 59.1823 265.758 59.5833 266.331 59.875C266.914 60.1667 267.581 60.3125 268.331 60.3125C269.123 60.3125 269.805 60.1719 270.378 59.8906C270.951 59.6094 271.388 59.1927 271.69 58.6406C272.003 58.0885 272.159 57.4219 272.159 56.6406C272.159 55.7552 271.987 55.0365 271.644 54.4844C271.3 53.9323 270.81 53.526 270.175 53.2656C269.539 52.9948 268.789 52.8594 267.925 52.8594H265.675Z" fill="white"/>
<g clip-path="url(#clip0_1913_18265)">
<path d="M187.601 209.17L158.767 209.475L160.722 201.963L160.875 200.852L164.093 180.217H183.108L186.325 201.046L186.575 202.643V202.782V202.865C186.575 202.865 186.575 202.949 186.575 203.004L187.601 209.17Z" fill="url(#paint0_linear_1913_18265)"/>
<path d="M203.216 146.153C203.216 146.93 203.216 147.694 203.216 148.444C203.163 152.932 202.782 157.411 202.079 161.844C199.305 178.077 191.275 189.616 172.953 189.616C153.619 189.616 146.074 178.132 143.619 161.844C142.972 157.331 142.634 152.78 142.606 148.222C142.606 147.527 142.606 146.833 142.606 146.111C142.606 122.129 156.185 102.675 172.967 102.675C189.749 102.675 203.216 122.213 203.216 146.153Z" fill="#FDCFB1"/>
<path d="M164.079 146.152C164.079 149.332 162.442 151.915 160.39 151.915C158.337 151.915 156.728 149.332 156.728 146.152C156.728 142.972 158.226 140.598 160.112 140.417C159.912 140.988 159.809 141.589 159.807 142.194C159.807 144.055 160.75 145.555 161.929 145.555C162.734 145.555 163.427 144.874 163.788 143.847C163.989 144.598 164.087 145.374 164.079 146.152Z" fill="#191C1C"/>
<path d="M191.291 146.152C191.291 149.332 189.641 151.915 187.588 151.915C185.536 151.915 183.927 149.374 183.927 146.152C183.927 142.93 185.425 140.598 187.325 140.417C187.113 140.986 187.005 141.588 187.006 142.194C187.006 144.055 187.949 145.555 189.128 145.555C189.932 145.555 190.626 144.874 190.986 143.847C191.192 144.598 191.295 145.373 191.291 146.152Z" fill="#191C1C"/>
<path d="M181.484 131.308C182.811 131.274 184.138 131.353 185.451 131.544C186.765 131.716 188.052 132.057 189.279 132.558C190.468 133.089 191.567 133.801 192.538 134.669C193.493 135.501 194.358 136.432 195.118 137.446C193.337 135.744 191.158 134.516 188.78 133.877C187.63 133.642 186.456 133.554 185.285 133.613C184.11 133.667 182.941 133.816 181.79 134.058C181.61 134.098 181.424 134.103 181.243 134.071C181.062 134.039 180.889 133.972 180.734 133.872C180.579 133.773 180.445 133.643 180.341 133.491C180.236 133.34 180.163 133.169 180.125 132.988C180.087 132.81 180.083 132.625 180.116 132.445C180.149 132.265 180.217 132.093 180.316 131.94C180.415 131.786 180.544 131.654 180.695 131.55C180.845 131.447 181.014 131.374 181.193 131.336C181.288 131.309 181.386 131.299 181.484 131.308Z" fill="#191C1C"/>
<path d="M164.827 133.863C163.673 133.652 162.504 133.541 161.331 133.53C160.156 133.495 158.98 133.617 157.836 133.891C155.503 134.605 153.385 135.894 151.678 137.64C152.403 136.627 153.235 135.695 154.161 134.863C155.107 133.964 156.188 133.219 157.365 132.655C158.572 132.112 159.845 131.73 161.151 131.516C162.456 131.287 163.779 131.171 165.104 131.169C165.472 131.169 165.825 131.315 166.085 131.576C166.345 131.836 166.491 132.189 166.491 132.558C166.491 132.926 166.345 133.279 166.085 133.539C165.825 133.8 165.472 133.946 165.104 133.946H164.827V133.863Z" fill="#191C1C"/>
<path d="M177.379 161.274C177.379 159.385 175.368 161.565 172.871 161.565C170.375 161.565 168.364 159.385 168.364 161.274C168.364 163.162 170.389 164.676 172.871 164.676C175.354 164.676 177.379 163.148 177.379 161.274Z" fill="#FC7E7E"/>
<path d="M184.62 169.509C183.893 171.432 182.801 173.196 181.402 174.702C178.748 173.343 175.836 172.566 172.858 172.425C170.13 172.476 167.472 173.31 165.202 174.827C163.805 173.274 162.743 171.449 162.082 169.467C162.022 169.287 162.007 169.096 162.036 168.909C162.065 168.721 162.138 168.544 162.249 168.391C162.36 168.237 162.506 168.113 162.675 168.027C162.843 167.941 163.03 167.897 163.219 167.898C163.219 167.898 170.487 168.689 172.928 168.689C175.591 168.689 183.593 167.898 183.593 167.898C183.778 167.912 183.957 167.969 184.116 168.064C184.275 168.159 184.409 168.29 184.509 168.446C184.608 168.603 184.67 168.78 184.69 168.964C184.709 169.149 184.685 169.335 184.62 169.509Z" fill="#191C1C"/>
<path d="M181.429 174.702C180.378 175.834 179.102 176.731 177.683 177.336C176.263 177.942 174.733 178.241 173.19 178.216C171.696 178.243 170.212 177.955 168.836 177.372C167.46 176.788 166.221 175.921 165.201 174.827C167.487 173.3 170.165 172.466 172.913 172.425C175.88 172.571 178.783 173.347 181.429 174.702Z" fill="#FC7E7E"/>
<path d="M212.706 155.414C212.359 157.261 208.198 163.399 202.054 161.885C202.757 157.452 203.137 152.973 203.191 148.485C203.191 148.485 204.439 144.18 208.156 144.18C208.766 144.194 209.369 144.302 209.945 144.5C215.133 146.152 213.052 153.539 212.706 155.414Z" fill="#FCBF99"/>
<path d="M203.481 153.789C203.481 153.789 206.255 146.846 208.876 147.513C209.211 147.58 209.529 147.716 209.808 147.913C210.088 148.109 210.324 148.361 210.501 148.654C210.679 148.946 210.793 149.272 210.838 149.611C210.883 149.95 210.857 150.295 210.762 150.623C210.762 150.623 209.93 148.999 208.516 149.401C207.101 149.804 203.481 153.789 203.481 153.789Z" fill="#FC7E7E"/>
<path d="M143.551 161.927C137.559 163.315 133.426 157.303 133.093 155.414C132.76 153.526 130.735 146.194 135.867 144.5C136.756 144.178 137.716 144.111 138.641 144.305C141.221 144.833 142.344 147.568 142.608 148.304C142.612 152.861 142.928 157.413 143.551 161.927Z" fill="#FCBF99"/>
<path d="M142.316 153.789C142.316 153.789 139.542 146.846 136.934 147.513C136.599 147.578 136.28 147.713 135.999 147.909C135.718 148.105 135.481 148.357 135.304 148.65C135.126 148.943 135.012 149.27 134.968 149.61C134.924 149.95 134.951 150.295 135.048 150.623C135.048 150.623 136.088 148.721 137.503 149.138C138.918 149.554 142.316 153.789 142.316 153.789Z" fill="#FC7E7E"/>
<path d="M154.105 118.241C146.616 126.461 142.524 148.304 142.524 148.304C142.261 147.568 141.137 144.833 138.558 144.305C137.989 141.014 133.495 113.755 142.302 109.062C142.718 108.82 143.154 108.616 143.606 108.451C146.389 112.408 149.965 115.742 154.105 118.241Z" fill="#191C1C"/>
<path d="M208.199 144.18C204.482 144.18 203.234 148.485 203.234 148.485C203.234 148.485 198.324 123.74 188.782 114.45C192.194 111.798 194.33 109.159 194.454 107.646C194.63 104.874 193.988 102.112 192.61 99.7026C198.019 99.7026 202.318 100.355 204.427 101.855C213.053 107.895 208.296 143.125 208.199 144.18Z" fill="#191C1C"/>
<path d="M194.508 107.646C194.424 109.159 192.247 111.811 188.835 114.45C183.099 118.952 176.219 121.756 168.974 122.545C163.693 122.676 158.501 121.173 154.106 118.241C149.972 115.763 146.397 112.453 143.606 108.52C141.241 105.346 139.927 101.51 139.848 97.5503C139.848 97.5503 151.068 100.328 156.879 99.7443C162.691 99.1611 173.246 89.524 183.232 92.6068C187.212 93.6346 190.632 96.1816 192.76 99.7026C194.105 102.123 194.712 104.884 194.508 107.646Z" fill="#191C1C"/>
<path d="M160.666 201.962C159.542 207.433 150.957 250.272 150.125 291.848C143.995 291.098 135.742 292.361 132.414 291.848C128.142 291.223 116.547 287.682 110.902 285.627C111.498 279.586 112.095 273.615 112.719 267.838C116.575 253.952 121.179 233.526 120.902 214.724C121.067 214.327 121.33 213.979 121.665 213.71C127.004 210.627 143.717 203.976 160.666 201.962Z" fill="#ECEFEE"/>
<path d="M193.026 370C193.026 370 193.303 307.776 193.026 292.14C192.748 276.504 186.59 202.574 186.59 202.574C201.667 204.421 214.038 207.879 217.561 212.294C219.239 214.711 221.93 236.831 224.69 263.784C226.077 277.004 227.464 291.376 228.657 305.165C220.21 312.705 211.708 320.94 212.083 324.398C212.207 325.62 213.719 327.841 215.924 330.466C215.924 330.466 201.056 336.118 201.056 341.978C201.056 347.838 217.519 354.253 220.016 353.42C222.512 352.587 228.892 343.075 228.892 343.075C230.071 344.019 231.195 344.866 232.207 345.546C233.442 360.155 234.232 369.861 234.232 369.861L193.026 370Z" fill="#ECEFEE"/>
<path d="M193.026 370H148.421C148.421 370 149.059 352.226 149.614 323.8C149.794 314.886 149.961 304.901 150.086 294.098C150.086 293.348 150.086 292.584 150.086 291.848C150.252 283.864 150.682 275.838 151.306 268.033C151.403 266.881 151.487 265.728 151.611 264.59C151.764 262.701 151.944 260.799 152.125 258.91C152.132 258.869 152.132 258.827 152.125 258.785C154.815 231.499 158.948 210.184 160.127 204.449C160.197 204.143 161.875 209.031 174.427 208.934C184.233 208.934 186.66 204.907 186.66 204.907L187.076 209.17C188.185 222.834 190.765 254.703 192.097 275.532C192.582 282.864 192.901 288.835 192.97 292.195C193.303 307.776 193.026 370 193.026 370Z" fill="#4F8B89"/>
<path d="M236.368 347.546C235.563 347.643 234.093 346.921 232.207 345.685C231.194 345.004 230.071 344.157 228.892 343.213C224.217 339.39 219.878 335.172 215.924 330.604C213.719 327.98 212.207 325.758 212.082 324.536C211.708 321.079 220.21 312.844 228.656 305.304C237.103 297.764 245.522 290.848 244.676 290.209C243.483 289.307 231.513 273.157 224.69 263.923C221.916 236.97 219.239 214.849 217.561 212.433C219.364 214.696 267.02 274.712 276.035 285.71C285.286 296.903 240.279 347.115 236.368 347.546Z" fill="#DAE5E3"/>
<path d="M206.379 244.19L192.148 275.531C190.761 254.702 188.237 222.833 187.128 209.169L186.49 202.559L186.323 200.976C196.351 204.906 203.882 222.417 203.882 222.417L195.033 228.61L206.379 244.19Z" fill="#C7DAD9"/>
<path d="M160.874 200.852C156.545 223.067 153.36 245.491 151.331 268.034L140.513 244.191L151.872 228.611L143.01 222.417C143.01 222.417 150.693 204.56 160.874 200.852Z" fill="#C7DAD9"/>
<path d="M196.474 259.209L153.576 237.457C152.414 236.868 150.996 237.333 150.407 238.496L123.857 290.984C123.268 292.147 123.733 293.568 124.895 294.157L167.793 315.909C168.954 316.498 170.373 316.032 170.961 314.869L197.512 262.381C198.101 261.218 197.636 259.798 196.474 259.209Z" fill="#605D62"/>
<path d="M194.189 262.159L152.528 241.034L127.156 291.193L168.816 312.318L194.189 262.159Z" fill="white"/>
<path d="M185.842 252.269L165.426 241.917L162.807 247.095L183.223 257.447L185.842 252.269Z" fill="#7B93B0"/>
<path d="M178.404 276.437L150.367 262.22L149.057 264.809L177.095 279.026L178.404 276.437Z" fill="#C7DAD9"/>
<path d="M175.936 281.34L147.898 267.123L146.588 269.712L174.626 283.929L175.936 281.34Z" fill="#C7DAD9"/>
<path d="M173.448 286.242L145.41 272.025L144.1 274.615L172.138 288.831L173.448 286.242Z" fill="#C7DAD9"/>
<path d="M170.957 291.157L142.919 276.94L141.609 279.53L169.647 293.746L170.957 291.157Z" fill="#C7DAD9"/>
<path d="M160.937 292.23L140.447 281.84L139.137 284.429L159.627 294.819L160.937 292.23Z" fill="#C7DAD9"/>
<path d="M168.847 265.798C171.774 265.798 174.146 263.423 174.146 260.493C174.146 257.564 171.774 255.189 168.847 255.189C165.921 255.189 163.549 257.564 163.549 260.493C163.549 263.423 165.921 265.798 168.847 265.798Z" fill="#FC7E7E"/>
<path d="M172.567 261.41L171.79 262.965L169.238 261.674L167.948 264.229L166.381 263.437L167.671 260.882L165.133 259.591L165.923 258.035L168.462 259.327L169.751 256.772L171.319 257.563L170.029 260.118L172.567 261.41Z" fill="white"/>
<path d="M157.337 298.014C156.34 304.843 154.662 311.556 152.331 318.052C151.571 320.043 150.643 321.967 149.557 323.801C147.823 326.758 145.798 328.702 143.496 328.702C136.644 328.702 119.917 323.62 107.879 317.885C105.675 316.861 103.526 315.721 101.443 314.469C89.9176 307.526 81.471 298.569 82.0258 291.862C82.5806 285.155 119.279 217.641 120.861 214.849V214.738C121.138 233.54 116.533 254.022 112.678 267.853C109.987 277.573 107.684 283.919 107.684 284.211C108.661 284.843 109.734 285.312 110.861 285.6C116.506 287.641 128.1 291.154 132.372 291.821C135.701 292.321 143.953 291.057 150.084 291.821C154.564 292.376 157.865 293.959 157.337 298.014Z" fill="#DAE5E3"/>
<path d="M167.877 323.134C164.493 323.773 156.047 319.885 152.33 318.052C154.661 311.556 156.339 304.843 157.336 298.014C165.187 295.486 172.593 285.322 175.728 286.294C178.862 287.266 170.79 298.986 170.79 298.986C170.79 298.986 179.001 301.152 179.861 303.929C180.721 306.707 172.26 322.301 167.877 323.134Z" fill="#FDCFB1"/>
<path d="M146.962 226.305L145.312 225.805C145.52 225.125 150.388 209.239 153.412 205.157C155.463 202.498 158.128 200.377 161.179 198.977L160.86 200.991C158.452 202.203 156.373 203.98 154.799 206.17C151.942 209.975 147.004 226.083 146.962 226.305Z" fill="#7B93B0"/>
<path d="M194.245 204.906C193.995 204.9 193.747 204.957 193.524 205.073C193.214 205.224 192.958 205.466 192.789 205.767C192.089 204.776 191.198 203.936 190.168 203.295C188.952 202.496 187.677 201.79 186.354 201.185L186.076 199.143C187.835 199.941 189.532 200.869 191.152 201.921C192.365 202.708 193.416 203.721 194.245 204.906Z" fill="#7B93B0"/>
<path d="M145.049 233.887C147.309 233.887 149.141 232.053 149.141 229.791C149.141 227.528 147.309 225.694 145.049 225.694C142.789 225.694 140.958 227.528 140.958 229.791C140.958 232.053 142.789 233.887 145.049 233.887Z" fill="#4F8B89"/>
<path d="M210.196 228.416C210.29 228.663 210.324 228.93 210.295 229.193C210.266 229.456 210.175 229.708 210.029 229.929C209.843 230.258 209.541 230.505 209.183 230.624C208.973 230.71 208.748 230.752 208.522 230.748C208.295 230.744 208.072 230.693 207.865 230.6C207.659 230.506 207.474 230.371 207.321 230.204C207.168 230.036 207.052 229.838 206.978 229.624C205.05 224.444 200.848 217.279 198.088 218.237C194.565 219.459 195.119 228.582 195.924 232.79C195.987 233.104 195.96 233.429 195.848 233.729C195.735 234.028 195.54 234.29 195.286 234.484C195.075 234.648 194.828 234.758 194.565 234.803H194.468C194.166 234.846 193.858 234.803 193.58 234.678C193.317 234.575 193.085 234.405 192.905 234.187C192.726 233.968 192.605 233.707 192.554 233.429C192.248 231.887 189.96 218.932 195.91 215.46C195.07 212.676 194.008 209.964 192.734 207.35C192.611 207.102 192.546 206.829 192.546 206.552C192.546 206.275 192.611 206.002 192.734 205.754C192.903 205.452 193.159 205.21 193.469 205.059C193.692 204.944 193.94 204.886 194.19 204.893C194.518 204.89 194.841 204.979 195.12 205.151C195.4 205.323 195.626 205.57 195.771 205.865C197.159 208.71 198.314 211.664 199.225 214.696C205.078 215.418 209.308 226.055 210.196 228.416Z" fill="#4F8B89"/>
<path d="M217.018 255.244C217.072 255.966 216.934 256.69 216.615 257.341C216.102 258.73 215.686 259.799 214.313 259.285C212.94 258.771 213.356 257.66 213.869 256.299C214.258 255.244 214.868 254.425 215.575 254.3C215.77 254.246 215.976 254.246 216.172 254.3C216.388 254.36 216.582 254.481 216.732 254.649C216.882 254.816 216.981 255.022 217.018 255.244Z" fill="#4F8B89"/>
<path d="M218.6 250.675C218.415 252.296 217.875 253.855 217.019 255.244C216.973 255.032 216.87 254.837 216.72 254.68C216.571 254.524 216.382 254.411 216.173 254.355C215.978 254.301 215.772 254.301 215.577 254.355C216.262 253.237 216.706 251.989 216.88 250.689C216.88 249.398 212.609 239.58 208.559 230.804C208.777 230.803 208.994 230.76 209.197 230.679C209.555 230.56 209.856 230.313 210.043 229.985C212.359 234.956 218.642 248.689 218.6 250.675Z" fill="#7B93B0"/>
<path d="M201.526 258.619C201.365 258.809 201.267 259.046 201.247 259.295C201.227 259.544 201.286 259.793 201.415 260.007C200.111 259.521 198.086 258.619 197.518 257.105C196.838 255.425 193.981 237.303 193.579 234.734C193.857 234.859 194.165 234.902 194.466 234.859H194.563C194.826 234.814 195.074 234.704 195.285 234.54C196.574 242.788 198.641 255.369 199.113 256.494C199.376 257.175 200.638 257.883 201.886 258.369C201.754 258.432 201.632 258.517 201.526 258.619Z" fill="#7B93B0"/>
<path d="M205.549 261.993C204.633 263.118 203.718 262.354 202.608 261.423C202.113 261.055 201.705 260.581 201.416 260.035C201.287 259.821 201.228 259.572 201.248 259.323C201.268 259.074 201.365 258.837 201.527 258.646C201.624 258.526 201.742 258.422 201.873 258.341C202.636 257.785 203.496 258.341 204.467 259.188C205.438 260.035 206.492 260.84 205.549 261.993Z" fill="#4F8B89"/>
</g>
<defs>
<linearGradient id="paint0_linear_1913_18265" x1="173.191" y1="208.239" x2="173.191" y2="179.37" gradientUnits="userSpaceOnUse">
<stop stop-color="#FFC6A1"/>
<stop offset="1" stop-color="#E2AB87"/>
</linearGradient>
<clipPath id="clip0_1913_18265">
<rect width="360" height="225" fill="white" transform="translate(0 92)"/>
</clipPath>
</defs>
</svg>
